G04 #@! TF.GenerationSoftware,KiCad,Pcbnew,(6.0.11)*
G04 #@! TF.CreationDate,2023-07-14T11:58:09+02:00*
G04 #@! TF.ProjectId,quakesr_large01,7175616b-6573-4725-9f6c-617267653031,rev?*
G04 #@! TF.SameCoordinates,Original*
G04 #@! TF.FileFunction,Legend,Top*
G04 #@! TF.FilePolarity,Positive*
%FSLAX46Y46*%
G04 Gerber Fmt 4.6, Leading zero omitted, Abs format (unit mm)*
G04 Created by KiCad (PCBNEW (6.0.11)) date 2023-07-14 11:58:09*
%MOMM*%
%LPD*%
G01*
G04 APERTURE LIST*
%ADD10C,0.062500*%
%ADD11C,0.150000*%
%ADD12C,0.120000*%
G04 APERTURE END LIST*
D10*
X145019047Y-89672571D02*
X144885714Y-89672571D01*
X144828571Y-89463047D02*
X145019047Y-89463047D01*
X145019047Y-89863047D01*
X144828571Y-89863047D01*
X144676190Y-89482095D02*
X144619047Y-89463047D01*
X144523809Y-89463047D01*
X144485714Y-89482095D01*
X144466666Y-89501142D01*
X144447619Y-89539238D01*
X144447619Y-89577333D01*
X144466666Y-89615428D01*
X144485714Y-89634476D01*
X144523809Y-89653523D01*
X144600000Y-89672571D01*
X144638095Y-89691619D01*
X144657142Y-89710666D01*
X144676190Y-89748761D01*
X144676190Y-89786857D01*
X144657142Y-89824952D01*
X144638095Y-89844000D01*
X144600000Y-89863047D01*
X144504761Y-89863047D01*
X144447619Y-89844000D01*
X144047619Y-89463047D02*
X144180952Y-89653523D01*
X144276190Y-89463047D02*
X144276190Y-89863047D01*
X144123809Y-89863047D01*
X144085714Y-89844000D01*
X144066666Y-89824952D01*
X144047619Y-89786857D01*
X144047619Y-89729714D01*
X144066666Y-89691619D01*
X144085714Y-89672571D01*
X144123809Y-89653523D01*
X144276190Y-89653523D01*
X143571428Y-89463047D02*
X143571428Y-89863047D01*
X143419047Y-89863047D01*
X143380952Y-89844000D01*
X143361904Y-89824952D01*
X143342857Y-89786857D01*
X143342857Y-89729714D01*
X143361904Y-89691619D01*
X143380952Y-89672571D01*
X143419047Y-89653523D01*
X143571428Y-89653523D01*
X142942857Y-89501142D02*
X142961904Y-89482095D01*
X143019047Y-89463047D01*
X143057142Y-89463047D01*
X143114285Y-89482095D01*
X143152380Y-89520190D01*
X143171428Y-89558285D01*
X143190476Y-89634476D01*
X143190476Y-89691619D01*
X143171428Y-89767809D01*
X143152380Y-89805904D01*
X143114285Y-89844000D01*
X143057142Y-89863047D01*
X143019047Y-89863047D01*
X142961904Y-89844000D01*
X142942857Y-89824952D01*
X142638095Y-89672571D02*
X142580952Y-89653523D01*
X142561904Y-89634476D01*
X142542857Y-89596380D01*
X142542857Y-89539238D01*
X142561904Y-89501142D01*
X142580952Y-89482095D01*
X142619047Y-89463047D01*
X142771428Y-89463047D01*
X142771428Y-89863047D01*
X142638095Y-89863047D01*
X142600000Y-89844000D01*
X142580952Y-89824952D01*
X142561904Y-89786857D01*
X142561904Y-89748761D01*
X142580952Y-89710666D01*
X142600000Y-89691619D01*
X142638095Y-89672571D01*
X142771428Y-89672571D01*
X141857142Y-89463047D02*
X142085714Y-89463047D01*
X141971428Y-89463047D02*
X141971428Y-89863047D01*
X142009523Y-89805904D01*
X142047619Y-89767809D01*
X142085714Y-89748761D01*
X141723809Y-89863047D02*
X141476190Y-89863047D01*
X141609523Y-89710666D01*
X141552380Y-89710666D01*
X141514285Y-89691619D01*
X141495238Y-89672571D01*
X141476190Y-89634476D01*
X141476190Y-89539238D01*
X141495238Y-89501142D01*
X141514285Y-89482095D01*
X141552380Y-89463047D01*
X141666666Y-89463047D01*
X141704761Y-89482095D01*
X141723809Y-89501142D01*
X141285714Y-89482095D02*
X141285714Y-89463047D01*
X141304761Y-89424952D01*
X141323809Y-89405904D01*
X140600000Y-89844000D02*
X140638095Y-89863047D01*
X140695238Y-89863047D01*
X140752380Y-89844000D01*
X140790476Y-89805904D01*
X140809523Y-89767809D01*
X140828571Y-89691619D01*
X140828571Y-89634476D01*
X140809523Y-89558285D01*
X140790476Y-89520190D01*
X140752380Y-89482095D01*
X140695238Y-89463047D01*
X140657142Y-89463047D01*
X140600000Y-89482095D01*
X140580952Y-89501142D01*
X140580952Y-89634476D01*
X140657142Y-89634476D01*
X140409523Y-89463047D02*
X140409523Y-89863047D01*
X140180952Y-89463047D01*
X140180952Y-89863047D01*
X139990476Y-89463047D02*
X139990476Y-89863047D01*
X139895238Y-89863047D01*
X139838095Y-89844000D01*
X139800000Y-89805904D01*
X139780952Y-89767809D01*
X139761904Y-89691619D01*
X139761904Y-89634476D01*
X139780952Y-89558285D01*
X139800000Y-89520190D01*
X139838095Y-89482095D01*
X139895238Y-89463047D01*
X139990476Y-89463047D01*
X139285714Y-89463047D02*
X139285714Y-89863047D01*
X139133333Y-89863047D01*
X139095238Y-89844000D01*
X139076190Y-89824952D01*
X139057142Y-89786857D01*
X139057142Y-89729714D01*
X139076190Y-89691619D01*
X139095238Y-89672571D01*
X139133333Y-89653523D01*
X139285714Y-89653523D01*
X138695238Y-89463047D02*
X138885714Y-89463047D01*
X138885714Y-89863047D01*
X138580952Y-89577333D02*
X138390476Y-89577333D01*
X138619047Y-89463047D02*
X138485714Y-89863047D01*
X138352380Y-89463047D01*
X138219047Y-89463047D02*
X138219047Y-89863047D01*
X137990476Y-89463047D01*
X137990476Y-89863047D01*
X137800000Y-89672571D02*
X137666666Y-89672571D01*
X137609523Y-89463047D02*
X137800000Y-89463047D01*
X137800000Y-89863047D01*
X137609523Y-89863047D01*
X137190476Y-89863047D02*
X137057142Y-89463047D01*
X136923809Y-89863047D01*
X136809523Y-89577333D02*
X136619047Y-89577333D01*
X136847619Y-89463047D02*
X136714285Y-89863047D01*
X136580952Y-89463047D01*
X136219047Y-89463047D02*
X136352380Y-89653523D01*
X136447619Y-89463047D02*
X136447619Y-89863047D01*
X136295238Y-89863047D01*
X136257142Y-89844000D01*
X136238095Y-89824952D01*
X136219047Y-89786857D01*
X136219047Y-89729714D01*
X136238095Y-89691619D01*
X136257142Y-89672571D01*
X136295238Y-89653523D01*
X136447619Y-89653523D01*
X136047619Y-89463047D02*
X136047619Y-89863047D01*
X135876190Y-89577333D02*
X135685714Y-89577333D01*
X135914285Y-89463047D02*
X135780952Y-89863047D01*
X135647619Y-89463047D01*
X135514285Y-89463047D02*
X135514285Y-89863047D01*
X135285714Y-89463047D01*
X135285714Y-89863047D01*
X135152380Y-89863047D02*
X134923809Y-89863047D01*
X135038095Y-89463047D02*
X135038095Y-89863047D01*
X147123809Y-88819047D02*
X147123809Y-89219047D01*
X146952380Y-88819047D02*
X146952380Y-89028571D01*
X146971428Y-89066666D01*
X147009523Y-89085714D01*
X147066666Y-89085714D01*
X147104761Y-89066666D01*
X147123809Y-89047619D01*
X146819047Y-89085714D02*
X146666666Y-89085714D01*
X146761904Y-89219047D02*
X146761904Y-88876190D01*
X146742857Y-88838095D01*
X146704761Y-88819047D01*
X146666666Y-88819047D01*
X146590476Y-89085714D02*
X146438095Y-89085714D01*
X146533333Y-89219047D02*
X146533333Y-88876190D01*
X146514285Y-88838095D01*
X146476190Y-88819047D01*
X146438095Y-88819047D01*
X146304761Y-89085714D02*
X146304761Y-88685714D01*
X146304761Y-89066666D02*
X146266666Y-89085714D01*
X146190476Y-89085714D01*
X146152380Y-89066666D01*
X146133333Y-89047619D01*
X146114285Y-89009523D01*
X146114285Y-88895238D01*
X146133333Y-88857142D01*
X146152380Y-88838095D01*
X146190476Y-88819047D01*
X146266666Y-88819047D01*
X146304761Y-88838095D01*
X145961904Y-88838095D02*
X145923809Y-88819047D01*
X145847619Y-88819047D01*
X145809523Y-88838095D01*
X145790476Y-88876190D01*
X145790476Y-88895238D01*
X145809523Y-88933333D01*
X145847619Y-88952380D01*
X145904761Y-88952380D01*
X145942857Y-88971428D01*
X145961904Y-89009523D01*
X145961904Y-89028571D01*
X145942857Y-89066666D01*
X145904761Y-89085714D01*
X145847619Y-89085714D01*
X145809523Y-89066666D01*
X145619047Y-88857142D02*
X145600000Y-88838095D01*
X145619047Y-88819047D01*
X145638095Y-88838095D01*
X145619047Y-88857142D01*
X145619047Y-88819047D01*
X145619047Y-89066666D02*
X145600000Y-89047619D01*
X145619047Y-89028571D01*
X145638095Y-89047619D01*
X145619047Y-89066666D01*
X145619047Y-89028571D01*
X145142857Y-89238095D02*
X145485714Y-88723809D01*
X144723809Y-89238095D02*
X145066666Y-88723809D01*
X144419047Y-89085714D02*
X144419047Y-88761904D01*
X144438095Y-88723809D01*
X144457142Y-88704761D01*
X144495238Y-88685714D01*
X144552380Y-88685714D01*
X144590476Y-88704761D01*
X144419047Y-88838095D02*
X144457142Y-88819047D01*
X144533333Y-88819047D01*
X144571428Y-88838095D01*
X144590476Y-88857142D01*
X144609523Y-88895238D01*
X144609523Y-89009523D01*
X144590476Y-89047619D01*
X144571428Y-89066666D01*
X144533333Y-89085714D01*
X144457142Y-89085714D01*
X144419047Y-89066666D01*
X144228571Y-88819047D02*
X144228571Y-89085714D01*
X144228571Y-89219047D02*
X144247619Y-89200000D01*
X144228571Y-89180952D01*
X144209523Y-89200000D01*
X144228571Y-89219047D01*
X144228571Y-89180952D01*
X144095238Y-89085714D02*
X143942857Y-89085714D01*
X144038095Y-89219047D02*
X144038095Y-88876190D01*
X144019047Y-88838095D01*
X143980952Y-88819047D01*
X143942857Y-88819047D01*
X143809523Y-88819047D02*
X143809523Y-89219047D01*
X143638095Y-88819047D02*
X143638095Y-89028571D01*
X143657142Y-89066666D01*
X143695238Y-89085714D01*
X143752380Y-89085714D01*
X143790476Y-89066666D01*
X143809523Y-89047619D01*
X143276190Y-89085714D02*
X143276190Y-88819047D01*
X143447619Y-89085714D02*
X143447619Y-88876190D01*
X143428571Y-88838095D01*
X143390476Y-88819047D01*
X143333333Y-88819047D01*
X143295238Y-88838095D01*
X143276190Y-88857142D01*
X143085714Y-88819047D02*
X143085714Y-89219047D01*
X143085714Y-89066666D02*
X143047619Y-89085714D01*
X142971428Y-89085714D01*
X142933333Y-89066666D01*
X142914285Y-89047619D01*
X142895238Y-89009523D01*
X142895238Y-88895238D01*
X142914285Y-88857142D01*
X142933333Y-88838095D01*
X142971428Y-88819047D01*
X143047619Y-88819047D01*
X143085714Y-88838095D01*
X142723809Y-88857142D02*
X142704761Y-88838095D01*
X142723809Y-88819047D01*
X142742857Y-88838095D01*
X142723809Y-88857142D01*
X142723809Y-88819047D01*
X142361904Y-88838095D02*
X142400000Y-88819047D01*
X142476190Y-88819047D01*
X142514285Y-88838095D01*
X142533333Y-88857142D01*
X142552380Y-88895238D01*
X142552380Y-89009523D01*
X142533333Y-89047619D01*
X142514285Y-89066666D01*
X142476190Y-89085714D01*
X142400000Y-89085714D01*
X142361904Y-89066666D01*
X142133333Y-88819047D02*
X142171428Y-88838095D01*
X142190476Y-88857142D01*
X142209523Y-88895238D01*
X142209523Y-89009523D01*
X142190476Y-89047619D01*
X142171428Y-89066666D01*
X142133333Y-89085714D01*
X142076190Y-89085714D01*
X142038095Y-89066666D01*
X142019047Y-89047619D01*
X142000000Y-89009523D01*
X142000000Y-88895238D01*
X142019047Y-88857142D01*
X142038095Y-88838095D01*
X142076190Y-88819047D01*
X142133333Y-88819047D01*
X141828571Y-88819047D02*
X141828571Y-89085714D01*
X141828571Y-89047619D02*
X141809523Y-89066666D01*
X141771428Y-89085714D01*
X141714285Y-89085714D01*
X141676190Y-89066666D01*
X141657142Y-89028571D01*
X141657142Y-88819047D01*
X141657142Y-89028571D02*
X141638095Y-89066666D01*
X141600000Y-89085714D01*
X141542857Y-89085714D01*
X141504761Y-89066666D01*
X141485714Y-89028571D01*
X141485714Y-88819047D01*
X141009523Y-89238095D02*
X141352380Y-88723809D01*
X140933333Y-89085714D02*
X140780952Y-89085714D01*
X140876190Y-89219047D02*
X140876190Y-88876190D01*
X140857142Y-88838095D01*
X140819047Y-88819047D01*
X140780952Y-88819047D01*
X140666666Y-88838095D02*
X140628571Y-88819047D01*
X140552380Y-88819047D01*
X140514285Y-88838095D01*
X140495238Y-88876190D01*
X140495238Y-88895238D01*
X140514285Y-88933333D01*
X140552380Y-88952380D01*
X140609523Y-88952380D01*
X140647619Y-88971428D01*
X140666666Y-89009523D01*
X140666666Y-89028571D01*
X140647619Y-89066666D01*
X140609523Y-89085714D01*
X140552380Y-89085714D01*
X140514285Y-89066666D01*
X140323809Y-89085714D02*
X140323809Y-88685714D01*
X140323809Y-89066666D02*
X140285714Y-89085714D01*
X140209523Y-89085714D01*
X140171428Y-89066666D01*
X140152380Y-89047619D01*
X140133333Y-89009523D01*
X140133333Y-88895238D01*
X140152380Y-88857142D01*
X140171428Y-88838095D01*
X140209523Y-88819047D01*
X140285714Y-88819047D01*
X140323809Y-88838095D01*
X139980952Y-88838095D02*
X139942857Y-88819047D01*
X139866666Y-88819047D01*
X139828571Y-88838095D01*
X139809523Y-88876190D01*
X139809523Y-88895238D01*
X139828571Y-88933333D01*
X139866666Y-88952380D01*
X139923809Y-88952380D01*
X139961904Y-88971428D01*
X139980952Y-89009523D01*
X139980952Y-89028571D01*
X139961904Y-89066666D01*
X139923809Y-89085714D01*
X139866666Y-89085714D01*
X139828571Y-89066666D01*
X139638095Y-89085714D02*
X139638095Y-88685714D01*
X139638095Y-89066666D02*
X139600000Y-89085714D01*
X139523809Y-89085714D01*
X139485714Y-89066666D01*
X139466666Y-89047619D01*
X139447619Y-89009523D01*
X139447619Y-88895238D01*
X139466666Y-88857142D01*
X139485714Y-88838095D01*
X139523809Y-88819047D01*
X139600000Y-88819047D01*
X139638095Y-88838095D01*
X139276190Y-88819047D02*
X139276190Y-89085714D01*
X139276190Y-89219047D02*
X139295238Y-89200000D01*
X139276190Y-89180952D01*
X139257142Y-89200000D01*
X139276190Y-89219047D01*
X139276190Y-89180952D01*
X138800000Y-89238095D02*
X139142857Y-88723809D01*
X138495238Y-89085714D02*
X138495238Y-88685714D01*
X138495238Y-88838095D02*
X138533333Y-88819047D01*
X138609523Y-88819047D01*
X138647619Y-88838095D01*
X138666666Y-88857142D01*
X138685714Y-88895238D01*
X138685714Y-89009523D01*
X138666666Y-89047619D01*
X138647619Y-89066666D01*
X138609523Y-89085714D01*
X138533333Y-89085714D01*
X138495238Y-89066666D01*
X138133333Y-89085714D02*
X138133333Y-88819047D01*
X138304761Y-89085714D02*
X138304761Y-88876190D01*
X138285714Y-88838095D01*
X138247619Y-88819047D01*
X138190476Y-88819047D01*
X138152380Y-88838095D01*
X138133333Y-88857142D01*
X137771428Y-88819047D02*
X137771428Y-89028571D01*
X137790476Y-89066666D01*
X137828571Y-89085714D01*
X137904761Y-89085714D01*
X137942857Y-89066666D01*
X137771428Y-88838095D02*
X137809523Y-88819047D01*
X137904761Y-88819047D01*
X137942857Y-88838095D01*
X137961904Y-88876190D01*
X137961904Y-88914285D01*
X137942857Y-88952380D01*
X137904761Y-88971428D01*
X137809523Y-88971428D01*
X137771428Y-88990476D01*
X137580952Y-88819047D02*
X137580952Y-89219047D01*
X137542857Y-88971428D02*
X137428571Y-88819047D01*
X137428571Y-89085714D02*
X137580952Y-88933333D01*
X137104761Y-88838095D02*
X137142857Y-88819047D01*
X137219047Y-88819047D01*
X137257142Y-88838095D01*
X137276190Y-88876190D01*
X137276190Y-89028571D01*
X137257142Y-89066666D01*
X137219047Y-89085714D01*
X137142857Y-89085714D01*
X137104761Y-89066666D01*
X137085714Y-89028571D01*
X137085714Y-88990476D01*
X137276190Y-88952380D01*
X136933333Y-88838095D02*
X136895238Y-88819047D01*
X136819047Y-88819047D01*
X136780952Y-88838095D01*
X136761904Y-88876190D01*
X136761904Y-88895238D01*
X136780952Y-88933333D01*
X136819047Y-88952380D01*
X136876190Y-88952380D01*
X136914285Y-88971428D01*
X136933333Y-89009523D01*
X136933333Y-89028571D01*
X136914285Y-89066666D01*
X136876190Y-89085714D01*
X136819047Y-89085714D01*
X136780952Y-89066666D01*
X136590476Y-88819047D02*
X136590476Y-89085714D01*
X136590476Y-89009523D02*
X136571428Y-89047619D01*
X136552380Y-89066666D01*
X136514285Y-89085714D01*
X136476190Y-89085714D01*
X136438095Y-88780952D02*
X136133333Y-88780952D01*
X135980952Y-88819047D02*
X136019047Y-88838095D01*
X136038095Y-88876190D01*
X136038095Y-89219047D01*
X135657142Y-88819047D02*
X135657142Y-89028571D01*
X135676190Y-89066666D01*
X135714285Y-89085714D01*
X135790476Y-89085714D01*
X135828571Y-89066666D01*
X135657142Y-88838095D02*
X135695238Y-88819047D01*
X135790476Y-88819047D01*
X135828571Y-88838095D01*
X135847619Y-88876190D01*
X135847619Y-88914285D01*
X135828571Y-88952380D01*
X135790476Y-88971428D01*
X135695238Y-88971428D01*
X135657142Y-88990476D01*
X135466666Y-88819047D02*
X135466666Y-89085714D01*
X135466666Y-89009523D02*
X135447619Y-89047619D01*
X135428571Y-89066666D01*
X135390476Y-89085714D01*
X135352380Y-89085714D01*
X135047619Y-89085714D02*
X135047619Y-88761904D01*
X135066666Y-88723809D01*
X135085714Y-88704761D01*
X135123809Y-88685714D01*
X135180952Y-88685714D01*
X135219047Y-88704761D01*
X135047619Y-88838095D02*
X135085714Y-88819047D01*
X135161904Y-88819047D01*
X135200000Y-88838095D01*
X135219047Y-88857142D01*
X135238095Y-88895238D01*
X135238095Y-89009523D01*
X135219047Y-89047619D01*
X135200000Y-89066666D01*
X135161904Y-89085714D01*
X135085714Y-89085714D01*
X135047619Y-89066666D01*
X134704761Y-88838095D02*
X134742857Y-88819047D01*
X134819047Y-88819047D01*
X134857142Y-88838095D01*
X134876190Y-88876190D01*
X134876190Y-89028571D01*
X134857142Y-89066666D01*
X134819047Y-89085714D01*
X134742857Y-89085714D01*
X134704761Y-89066666D01*
X134685714Y-89028571D01*
X134685714Y-88990476D01*
X134876190Y-88952380D01*
X134514285Y-89085714D02*
X134514285Y-88685714D01*
X134514285Y-89066666D02*
X134476190Y-89085714D01*
X134400000Y-89085714D01*
X134361904Y-89066666D01*
X134342857Y-89047619D01*
X134323809Y-89009523D01*
X134323809Y-88895238D01*
X134342857Y-88857142D01*
X134361904Y-88838095D01*
X134400000Y-88819047D01*
X134476190Y-88819047D01*
X134514285Y-88838095D01*
X133980952Y-88838095D02*
X134019047Y-88819047D01*
X134095238Y-88819047D01*
X134133333Y-88838095D01*
X134152380Y-88857142D01*
X134171428Y-88895238D01*
X134171428Y-89009523D01*
X134152380Y-89047619D01*
X134133333Y-89066666D01*
X134095238Y-89085714D01*
X134019047Y-89085714D01*
X133980952Y-89066666D01*
X133809523Y-88819047D02*
X133809523Y-89219047D01*
X133809523Y-89066666D02*
X133771428Y-89085714D01*
X133695238Y-89085714D01*
X133657142Y-89066666D01*
X133638095Y-89047619D01*
X133619047Y-89009523D01*
X133619047Y-88895238D01*
X133638095Y-88857142D01*
X133657142Y-88838095D01*
X133695238Y-88819047D01*
X133771428Y-88819047D01*
X133809523Y-88838095D01*
X133371428Y-89219047D02*
X133333333Y-89219047D01*
X133295238Y-89200000D01*
X133276190Y-89180952D01*
X133257142Y-89142857D01*
X133238095Y-89066666D01*
X133238095Y-88971428D01*
X133257142Y-88895238D01*
X133276190Y-88857142D01*
X133295238Y-88838095D01*
X133333333Y-88819047D01*
X133371428Y-88819047D01*
X133409523Y-88838095D01*
X133428571Y-88857142D01*
X133447619Y-88895238D01*
X133466666Y-88971428D01*
X133466666Y-89066666D01*
X133447619Y-89142857D01*
X133428571Y-89180952D01*
X133409523Y-89200000D01*
X133371428Y-89219047D01*
X132857142Y-88819047D02*
X133085714Y-88819047D01*
X132971428Y-88819047D02*
X132971428Y-89219047D01*
X133009523Y-89161904D01*
X133047619Y-89123809D01*
X133085714Y-89104761D01*
X146990476Y-88575047D02*
X146952380Y-88575047D01*
X146914285Y-88556000D01*
X146895238Y-88536952D01*
X146876190Y-88498857D01*
X146857142Y-88422666D01*
X146857142Y-88327428D01*
X146876190Y-88251238D01*
X146895238Y-88213142D01*
X146914285Y-88194095D01*
X146952380Y-88175047D01*
X146990476Y-88175047D01*
X147028571Y-88194095D01*
X147047619Y-88213142D01*
X147066666Y-88251238D01*
X147085714Y-88327428D01*
X147085714Y-88422666D01*
X147066666Y-88498857D01*
X147047619Y-88536952D01*
X147028571Y-88556000D01*
X146990476Y-88575047D01*
X146514285Y-88175047D02*
X146514285Y-88384571D01*
X146533333Y-88422666D01*
X146571428Y-88441714D01*
X146647619Y-88441714D01*
X146685714Y-88422666D01*
X146514285Y-88194095D02*
X146552380Y-88175047D01*
X146647619Y-88175047D01*
X146685714Y-88194095D01*
X146704761Y-88232190D01*
X146704761Y-88270285D01*
X146685714Y-88308380D01*
X146647619Y-88327428D01*
X146552380Y-88327428D01*
X146514285Y-88346476D01*
X146304761Y-88175047D02*
X146228571Y-88175047D01*
X146190476Y-88194095D01*
X146171428Y-88213142D01*
X146133333Y-88270285D01*
X146114285Y-88346476D01*
X146114285Y-88498857D01*
X146133333Y-88536952D01*
X146152380Y-88556000D01*
X146190476Y-88575047D01*
X146266666Y-88575047D01*
X146304761Y-88556000D01*
X146323809Y-88536952D01*
X146342857Y-88498857D01*
X146342857Y-88403619D01*
X146323809Y-88365523D01*
X146304761Y-88346476D01*
X146266666Y-88327428D01*
X146190476Y-88327428D01*
X146152380Y-88346476D01*
X146133333Y-88365523D01*
X146114285Y-88403619D01*
X145733333Y-88175047D02*
X145961904Y-88175047D01*
X145847619Y-88175047D02*
X145847619Y-88575047D01*
X145885714Y-88517904D01*
X145923809Y-88479809D01*
X145961904Y-88460761D01*
X145600000Y-88575047D02*
X145352380Y-88575047D01*
X145485714Y-88422666D01*
X145428571Y-88422666D01*
X145390476Y-88403619D01*
X145371428Y-88384571D01*
X145352380Y-88346476D01*
X145352380Y-88251238D01*
X145371428Y-88213142D01*
X145390476Y-88194095D01*
X145428571Y-88175047D01*
X145542857Y-88175047D01*
X145580952Y-88194095D01*
X145600000Y-88213142D01*
X145009523Y-88175047D02*
X145009523Y-88384571D01*
X145028571Y-88422666D01*
X145066666Y-88441714D01*
X145142857Y-88441714D01*
X145180952Y-88422666D01*
X145009523Y-88194095D02*
X145047619Y-88175047D01*
X145142857Y-88175047D01*
X145180952Y-88194095D01*
X145200000Y-88232190D01*
X145200000Y-88270285D01*
X145180952Y-88308380D01*
X145142857Y-88327428D01*
X145047619Y-88327428D01*
X145009523Y-88346476D01*
X144876190Y-88441714D02*
X144723809Y-88441714D01*
X144819047Y-88175047D02*
X144819047Y-88517904D01*
X144800000Y-88556000D01*
X144761904Y-88575047D01*
X144723809Y-88575047D01*
X144419047Y-88175047D02*
X144419047Y-88384571D01*
X144438095Y-88422666D01*
X144476190Y-88441714D01*
X144552380Y-88441714D01*
X144590476Y-88422666D01*
X144419047Y-88194095D02*
X144457142Y-88175047D01*
X144552380Y-88175047D01*
X144590476Y-88194095D01*
X144609523Y-88232190D01*
X144609523Y-88270285D01*
X144590476Y-88308380D01*
X144552380Y-88327428D01*
X144457142Y-88327428D01*
X144419047Y-88346476D01*
X144057142Y-88175047D02*
X144057142Y-88384571D01*
X144076190Y-88422666D01*
X144114285Y-88441714D01*
X144190476Y-88441714D01*
X144228571Y-88422666D01*
X144057142Y-88194095D02*
X144095238Y-88175047D01*
X144190476Y-88175047D01*
X144228571Y-88194095D01*
X144247619Y-88232190D01*
X144247619Y-88270285D01*
X144228571Y-88308380D01*
X144190476Y-88327428D01*
X144095238Y-88327428D01*
X144057142Y-88346476D01*
X143695238Y-88441714D02*
X143695238Y-88175047D01*
X143790476Y-88594095D02*
X143885714Y-88308380D01*
X143638095Y-88308380D01*
X143314285Y-88575047D02*
X143390476Y-88575047D01*
X143428571Y-88556000D01*
X143447619Y-88536952D01*
X143485714Y-88479809D01*
X143504761Y-88403619D01*
X143504761Y-88251238D01*
X143485714Y-88213142D01*
X143466666Y-88194095D01*
X143428571Y-88175047D01*
X143352380Y-88175047D01*
X143314285Y-88194095D01*
X143295238Y-88213142D01*
X143276190Y-88251238D01*
X143276190Y-88346476D01*
X143295238Y-88384571D01*
X143314285Y-88403619D01*
X143352380Y-88422666D01*
X143428571Y-88422666D01*
X143466666Y-88403619D01*
X143485714Y-88384571D01*
X143504761Y-88346476D01*
X142933333Y-88441714D02*
X142933333Y-88175047D01*
X143028571Y-88594095D02*
X143123809Y-88308380D01*
X142876190Y-88308380D01*
X142761904Y-88575047D02*
X142495238Y-88575047D01*
X142666666Y-88175047D01*
X142380952Y-88575047D02*
X142114285Y-88575047D01*
X142285714Y-88175047D01*
X141961904Y-88175047D02*
X141961904Y-88575047D01*
X141961904Y-88422666D02*
X141923809Y-88441714D01*
X141847619Y-88441714D01*
X141809523Y-88422666D01*
X141790476Y-88403619D01*
X141771428Y-88365523D01*
X141771428Y-88251238D01*
X141790476Y-88213142D01*
X141809523Y-88194095D01*
X141847619Y-88175047D01*
X141923809Y-88175047D01*
X141961904Y-88194095D01*
X141428571Y-88175047D02*
X141428571Y-88575047D01*
X141428571Y-88194095D02*
X141466666Y-88175047D01*
X141542857Y-88175047D01*
X141580952Y-88194095D01*
X141600000Y-88213142D01*
X141619047Y-88251238D01*
X141619047Y-88365523D01*
X141600000Y-88403619D01*
X141580952Y-88422666D01*
X141542857Y-88441714D01*
X141466666Y-88441714D01*
X141428571Y-88422666D01*
X141066666Y-88194095D02*
X141104761Y-88175047D01*
X141180952Y-88175047D01*
X141219047Y-88194095D01*
X141238095Y-88213142D01*
X141257142Y-88251238D01*
X141257142Y-88365523D01*
X141238095Y-88403619D01*
X141219047Y-88422666D01*
X141180952Y-88441714D01*
X141104761Y-88441714D01*
X141066666Y-88422666D01*
X140895238Y-88175047D02*
X140895238Y-88575047D01*
X140895238Y-88422666D02*
X140857142Y-88441714D01*
X140780952Y-88441714D01*
X140742857Y-88422666D01*
X140723809Y-88403619D01*
X140704761Y-88365523D01*
X140704761Y-88251238D01*
X140723809Y-88213142D01*
X140742857Y-88194095D01*
X140780952Y-88175047D01*
X140857142Y-88175047D01*
X140895238Y-88194095D01*
X140361904Y-88175047D02*
X140361904Y-88575047D01*
X140361904Y-88194095D02*
X140400000Y-88175047D01*
X140476190Y-88175047D01*
X140514285Y-88194095D01*
X140533333Y-88213142D01*
X140552380Y-88251238D01*
X140552380Y-88365523D01*
X140533333Y-88403619D01*
X140514285Y-88422666D01*
X140476190Y-88441714D01*
X140400000Y-88441714D01*
X140361904Y-88422666D01*
X140228571Y-88441714D02*
X140076190Y-88441714D01*
X140171428Y-88175047D02*
X140171428Y-88517904D01*
X140152380Y-88556000D01*
X140114285Y-88575047D01*
X140076190Y-88575047D01*
X139980952Y-88575047D02*
X139714285Y-88575047D01*
X139885714Y-88175047D01*
X139580952Y-88536952D02*
X139561904Y-88556000D01*
X139523809Y-88575047D01*
X139428571Y-88575047D01*
X139390476Y-88556000D01*
X139371428Y-88536952D01*
X139352380Y-88498857D01*
X139352380Y-88460761D01*
X139371428Y-88403619D01*
X139600000Y-88175047D01*
X139352380Y-88175047D01*
X139180952Y-88175047D02*
X139180952Y-88575047D01*
X139180952Y-88422666D02*
X139142857Y-88441714D01*
X139066666Y-88441714D01*
X139028571Y-88422666D01*
X139009523Y-88403619D01*
X138990476Y-88365523D01*
X138990476Y-88251238D01*
X139009523Y-88213142D01*
X139028571Y-88194095D01*
X139066666Y-88175047D01*
X139142857Y-88175047D01*
X139180952Y-88194095D01*
X138876190Y-88441714D02*
X138723809Y-88441714D01*
X138819047Y-88175047D02*
X138819047Y-88517904D01*
X138800000Y-88556000D01*
X138761904Y-88575047D01*
X138723809Y-88575047D01*
X138647619Y-88441714D02*
X138495238Y-88441714D01*
X138590476Y-88175047D02*
X138590476Y-88517904D01*
X138571428Y-88556000D01*
X138533333Y-88575047D01*
X138495238Y-88575047D01*
X138190476Y-88175047D02*
X138190476Y-88575047D01*
X138190476Y-88194095D02*
X138228571Y-88175047D01*
X138304761Y-88175047D01*
X138342857Y-88194095D01*
X138361904Y-88213142D01*
X138380952Y-88251238D01*
X138380952Y-88365523D01*
X138361904Y-88403619D01*
X138342857Y-88422666D01*
X138304761Y-88441714D01*
X138228571Y-88441714D01*
X138190476Y-88422666D01*
X138019047Y-88536952D02*
X138000000Y-88556000D01*
X137961904Y-88575047D01*
X137866666Y-88575047D01*
X137828571Y-88556000D01*
X137809523Y-88536952D01*
X137790476Y-88498857D01*
X137790476Y-88460761D01*
X137809523Y-88403619D01*
X138038095Y-88175047D01*
X137790476Y-88175047D01*
X137428571Y-88575047D02*
X137619047Y-88575047D01*
X137638095Y-88384571D01*
X137619047Y-88403619D01*
X137580952Y-88422666D01*
X137485714Y-88422666D01*
X137447619Y-88403619D01*
X137428571Y-88384571D01*
X137409523Y-88346476D01*
X137409523Y-88251238D01*
X137428571Y-88213142D01*
X137447619Y-88194095D01*
X137485714Y-88175047D01*
X137580952Y-88175047D01*
X137619047Y-88194095D01*
X137638095Y-88213142D01*
X137066666Y-88175047D02*
X137066666Y-88575047D01*
X137066666Y-88194095D02*
X137104761Y-88175047D01*
X137180952Y-88175047D01*
X137219047Y-88194095D01*
X137238095Y-88213142D01*
X137257142Y-88251238D01*
X137257142Y-88365523D01*
X137238095Y-88403619D01*
X137219047Y-88422666D01*
X137180952Y-88441714D01*
X137104761Y-88441714D01*
X137066666Y-88422666D01*
X136895238Y-88536952D02*
X136876190Y-88556000D01*
X136838095Y-88575047D01*
X136742857Y-88575047D01*
X136704761Y-88556000D01*
X136685714Y-88536952D01*
X136666666Y-88498857D01*
X136666666Y-88460761D01*
X136685714Y-88403619D01*
X136914285Y-88175047D01*
X136666666Y-88175047D01*
X136533333Y-88575047D02*
X136285714Y-88575047D01*
X136419047Y-88422666D01*
X136361904Y-88422666D01*
X136323809Y-88403619D01*
X136304761Y-88384571D01*
X136285714Y-88346476D01*
X136285714Y-88251238D01*
X136304761Y-88213142D01*
X136323809Y-88194095D01*
X136361904Y-88175047D01*
X136476190Y-88175047D01*
X136514285Y-88194095D01*
X136533333Y-88213142D01*
X136133333Y-88536952D02*
X136114285Y-88556000D01*
X136076190Y-88575047D01*
X135980952Y-88575047D01*
X135942857Y-88556000D01*
X135923809Y-88536952D01*
X135904761Y-88498857D01*
X135904761Y-88460761D01*
X135923809Y-88403619D01*
X136152380Y-88175047D01*
X135904761Y-88175047D01*
X135542857Y-88575047D02*
X135733333Y-88575047D01*
X135752380Y-88384571D01*
X135733333Y-88403619D01*
X135695238Y-88422666D01*
X135600000Y-88422666D01*
X135561904Y-88403619D01*
X135542857Y-88384571D01*
X135523809Y-88346476D01*
X135523809Y-88251238D01*
X135542857Y-88213142D01*
X135561904Y-88194095D01*
X135600000Y-88175047D01*
X135695238Y-88175047D01*
X135733333Y-88194095D01*
X135752380Y-88213142D01*
X135333333Y-88175047D02*
X135257142Y-88175047D01*
X135219047Y-88194095D01*
X135200000Y-88213142D01*
X135161904Y-88270285D01*
X135142857Y-88346476D01*
X135142857Y-88498857D01*
X135161904Y-88536952D01*
X135180952Y-88556000D01*
X135219047Y-88575047D01*
X135295238Y-88575047D01*
X135333333Y-88556000D01*
X135352380Y-88536952D01*
X135371428Y-88498857D01*
X135371428Y-88403619D01*
X135352380Y-88365523D01*
X135333333Y-88346476D01*
X135295238Y-88327428D01*
X135219047Y-88327428D01*
X135180952Y-88346476D01*
X135161904Y-88365523D01*
X135142857Y-88403619D01*
X134800000Y-88175047D02*
X134800000Y-88384571D01*
X134819047Y-88422666D01*
X134857142Y-88441714D01*
X134933333Y-88441714D01*
X134971428Y-88422666D01*
X134800000Y-88194095D02*
X134838095Y-88175047D01*
X134933333Y-88175047D01*
X134971428Y-88194095D01*
X134990476Y-88232190D01*
X134990476Y-88270285D01*
X134971428Y-88308380D01*
X134933333Y-88327428D01*
X134838095Y-88327428D01*
X134800000Y-88346476D01*
X134533333Y-88575047D02*
X134495238Y-88575047D01*
X134457142Y-88556000D01*
X134438095Y-88536952D01*
X134419047Y-88498857D01*
X134400000Y-88422666D01*
X134400000Y-88327428D01*
X134419047Y-88251238D01*
X134438095Y-88213142D01*
X134457142Y-88194095D01*
X134495238Y-88175047D01*
X134533333Y-88175047D01*
X134571428Y-88194095D01*
X134590476Y-88213142D01*
X134609523Y-88251238D01*
X134628571Y-88327428D01*
X134628571Y-88422666D01*
X134609523Y-88498857D01*
X134590476Y-88536952D01*
X134571428Y-88556000D01*
X134533333Y-88575047D01*
X134247619Y-88536952D02*
X134228571Y-88556000D01*
X134190476Y-88575047D01*
X134095238Y-88575047D01*
X134057142Y-88556000D01*
X134038095Y-88536952D01*
X134019047Y-88498857D01*
X134019047Y-88460761D01*
X134038095Y-88403619D01*
X134266666Y-88175047D01*
X134019047Y-88175047D01*
X133676190Y-88175047D02*
X133676190Y-88575047D01*
X133676190Y-88194095D02*
X133714285Y-88175047D01*
X133790476Y-88175047D01*
X133828571Y-88194095D01*
X133847619Y-88213142D01*
X133866666Y-88251238D01*
X133866666Y-88365523D01*
X133847619Y-88403619D01*
X133828571Y-88422666D01*
X133790476Y-88441714D01*
X133714285Y-88441714D01*
X133676190Y-88422666D01*
X133523809Y-88575047D02*
X133257142Y-88575047D01*
X133428571Y-88175047D01*
X132933333Y-88175047D02*
X132933333Y-88384571D01*
X132952380Y-88422666D01*
X132990476Y-88441714D01*
X133066666Y-88441714D01*
X133104761Y-88422666D01*
X132933333Y-88194095D02*
X132971428Y-88175047D01*
X133066666Y-88175047D01*
X133104761Y-88194095D01*
X133123809Y-88232190D01*
X133123809Y-88270285D01*
X133104761Y-88308380D01*
X133066666Y-88327428D01*
X132971428Y-88327428D01*
X132933333Y-88346476D01*
D11*
G04 #@! TO.C,C4*
X141583333Y-111107142D02*
X141535714Y-111154761D01*
X141392857Y-111202380D01*
X141297619Y-111202380D01*
X141154761Y-111154761D01*
X141059523Y-111059523D01*
X141011904Y-110964285D01*
X140964285Y-110773809D01*
X140964285Y-110630952D01*
X141011904Y-110440476D01*
X141059523Y-110345238D01*
X141154761Y-110250000D01*
X141297619Y-110202380D01*
X141392857Y-110202380D01*
X141535714Y-110250000D01*
X141583333Y-110297619D01*
X142440476Y-110535714D02*
X142440476Y-111202380D01*
X142202380Y-110154761D02*
X141964285Y-110869047D01*
X142583333Y-110869047D01*
G04 #@! TO.C,C2*
X141583333Y-118107142D02*
X141535714Y-118154761D01*
X141392857Y-118202380D01*
X141297619Y-118202380D01*
X141154761Y-118154761D01*
X141059523Y-118059523D01*
X141011904Y-117964285D01*
X140964285Y-117773809D01*
X140964285Y-117630952D01*
X141011904Y-117440476D01*
X141059523Y-117345238D01*
X141154761Y-117250000D01*
X141297619Y-117202380D01*
X141392857Y-117202380D01*
X141535714Y-117250000D01*
X141583333Y-117297619D01*
X141964285Y-117297619D02*
X142011904Y-117250000D01*
X142107142Y-117202380D01*
X142345238Y-117202380D01*
X142440476Y-117250000D01*
X142488095Y-117297619D01*
X142535714Y-117392857D01*
X142535714Y-117488095D01*
X142488095Y-117630952D01*
X141916666Y-118202380D01*
X142535714Y-118202380D01*
G04 #@! TO.C,C3*
X141533333Y-109407142D02*
X141485714Y-109454761D01*
X141342857Y-109502380D01*
X141247619Y-109502380D01*
X141104761Y-109454761D01*
X141009523Y-109359523D01*
X140961904Y-109264285D01*
X140914285Y-109073809D01*
X140914285Y-108930952D01*
X140961904Y-108740476D01*
X141009523Y-108645238D01*
X141104761Y-108550000D01*
X141247619Y-108502380D01*
X141342857Y-108502380D01*
X141485714Y-108550000D01*
X141533333Y-108597619D01*
X141866666Y-108502380D02*
X142485714Y-108502380D01*
X142152380Y-108883333D01*
X142295238Y-108883333D01*
X142390476Y-108930952D01*
X142438095Y-108978571D01*
X142485714Y-109073809D01*
X142485714Y-109311904D01*
X142438095Y-109407142D01*
X142390476Y-109454761D01*
X142295238Y-109502380D01*
X142009523Y-109502380D01*
X141914285Y-109454761D01*
X141866666Y-109407142D01*
G04 #@! TO.C,C1*
X141533333Y-116482142D02*
X141485714Y-116529761D01*
X141342857Y-116577380D01*
X141247619Y-116577380D01*
X141104761Y-116529761D01*
X141009523Y-116434523D01*
X140961904Y-116339285D01*
X140914285Y-116148809D01*
X140914285Y-116005952D01*
X140961904Y-115815476D01*
X141009523Y-115720238D01*
X141104761Y-115625000D01*
X141247619Y-115577380D01*
X141342857Y-115577380D01*
X141485714Y-115625000D01*
X141533333Y-115672619D01*
X142485714Y-116577380D02*
X141914285Y-116577380D01*
X142200000Y-116577380D02*
X142200000Y-115577380D01*
X142104761Y-115720238D01*
X142009523Y-115815476D01*
X141914285Y-115863095D01*
G04 #@! TO.C,X1*
X152904523Y-127278095D02*
X154174523Y-126431428D01*
X152904523Y-126431428D02*
X154174523Y-127278095D01*
X154174523Y-125282380D02*
X154174523Y-126008095D01*
X154174523Y-125645238D02*
X152904523Y-125645238D01*
X153085952Y-125766190D01*
X153206904Y-125887142D01*
X153267380Y-126008095D01*
G04 #@! TO.C,L2*
X142452380Y-113354166D02*
X142452380Y-113830357D01*
X141452380Y-113830357D01*
X141547619Y-113068452D02*
X141500000Y-113020833D01*
X141452380Y-112925595D01*
X141452380Y-112687500D01*
X141500000Y-112592261D01*
X141547619Y-112544642D01*
X141642857Y-112497023D01*
X141738095Y-112497023D01*
X141880952Y-112544642D01*
X142452380Y-113116071D01*
X142452380Y-112497023D01*
G04 #@! TO.C,L1*
X141583333Y-119952380D02*
X141107142Y-119952380D01*
X141107142Y-118952380D01*
X142440476Y-119952380D02*
X141869047Y-119952380D01*
X142154761Y-119952380D02*
X142154761Y-118952380D01*
X142059523Y-119095238D01*
X141964285Y-119190476D01*
X141869047Y-119238095D01*
D12*
G04 #@! TO.C,C4*
X144840580Y-110190000D02*
X144559420Y-110190000D01*
X144840580Y-111210000D02*
X144559420Y-111210000D01*
G04 #@! TO.C,C2*
X144790580Y-117290000D02*
X144509420Y-117290000D01*
X144790580Y-118310000D02*
X144509420Y-118310000D01*
G04 #@! TO.C,C3*
X144815580Y-108390000D02*
X144534420Y-108390000D01*
X144815580Y-109410000D02*
X144534420Y-109410000D01*
G04 #@! TO.C,C1*
X144815580Y-115565000D02*
X144534420Y-115565000D01*
X144815580Y-116585000D02*
X144534420Y-116585000D01*
G04 #@! TO.C,L2*
X145960000Y-113350279D02*
X145960000Y-113024721D01*
X144940000Y-113350279D02*
X144940000Y-113024721D01*
G04 #@! TO.C,L1*
X144449721Y-120010000D02*
X144775279Y-120010000D01*
X144449721Y-118990000D02*
X144775279Y-118990000D01*
G04 #@! TD*
M02*
