G04 #@! TF.GenerationSoftware,KiCad,Pcbnew,(6.0.11)*
G04 #@! TF.CreationDate,2023-07-13T18:19:00+02:00*
G04 #@! TF.ProjectId,quakesr_large01,7175616b-6573-4725-9f6c-617267653031,rev?*
G04 #@! TF.SameCoordinates,Original*
G04 #@! TF.FileFunction,Copper,L1,Top*
G04 #@! TF.FilePolarity,Positive*
%FSLAX46Y46*%
G04 Gerber Fmt 4.6, Leading zero omitted, Abs format (unit mm)*
G04 Created by KiCad (PCBNEW (6.0.11)) date 2023-07-13 18:19:00*
%MOMM*%
%LPD*%
G01*
G04 APERTURE LIST*
G04 Aperture macros list*
%AMRoundRect*
0 Rectangle with rounded corners*
0 $1 Rounding radius*
0 $2 $3 $4 $5 $6 $7 $8 $9 X,Y pos of 4 corners*
0 Add a 4 corners polygon primitive as box body*
4,1,4,$2,$3,$4,$5,$6,$7,$8,$9,$2,$3,0*
0 Add four circle primitives for the rounded corners*
1,1,$1+$1,$2,$3*
1,1,$1+$1,$4,$5*
1,1,$1+$1,$6,$7*
1,1,$1+$1,$8,$9*
0 Add four rect primitives between the rounded corners*
20,1,$1+$1,$2,$3,$4,$5,0*
20,1,$1+$1,$4,$5,$6,$7,0*
20,1,$1+$1,$6,$7,$8,$9,0*
20,1,$1+$1,$8,$9,$2,$3,0*%
G04 Aperture macros list end*
G04 #@! TA.AperFunction,SMDPad,CuDef*
%ADD10RoundRect,0.225000X0.225000X0.250000X-0.225000X0.250000X-0.225000X-0.250000X0.225000X-0.250000X0*%
G04 #@! TD*
G04 #@! TA.AperFunction,SMDPad,CuDef*
%ADD11RoundRect,0.865000X0.000000X0.000000X0.000000X0.000000X0.000000X0.000000X0.000000X0.000000X0*%
G04 #@! TD*
G04 #@! TA.AperFunction,SMDPad,CuDef*
%ADD12R,1.900000X2.350000*%
G04 #@! TD*
G04 #@! TA.AperFunction,SMDPad,CuDef*
%ADD13R,3.400000X1.500000*%
G04 #@! TD*
G04 #@! TA.AperFunction,ComponentPad*
%ADD14C,0.400000*%
G04 #@! TD*
G04 #@! TA.AperFunction,SMDPad,CuDef*
%ADD15RoundRect,0.218750X0.256250X-0.218750X0.256250X0.218750X-0.256250X0.218750X-0.256250X-0.218750X0*%
G04 #@! TD*
G04 #@! TA.AperFunction,SMDPad,CuDef*
%ADD16RoundRect,0.218750X-0.218750X-0.256250X0.218750X-0.256250X0.218750X0.256250X-0.218750X0.256250X0*%
G04 #@! TD*
G04 #@! TA.AperFunction,Conductor*
%ADD17C,1.000000*%
G04 #@! TD*
G04 #@! TA.AperFunction,Conductor*
%ADD18C,0.250000*%
G04 #@! TD*
G04 APERTURE END LIST*
D10*
G04 #@! TO.P,C4,1,1*
G04 #@! TO.N,Net-(C3-Pad1)*
X145475000Y-110700000D03*
G04 #@! TO.P,C4,2,2*
G04 #@! TO.N,GND*
X143925000Y-110700000D03*
G04 #@! TD*
G04 #@! TO.P,C2,1,1*
G04 #@! TO.N,Net-(C1-Pad1)*
X145425000Y-117800000D03*
G04 #@! TO.P,C2,2,2*
G04 #@! TO.N,GND*
X143875000Y-117800000D03*
G04 #@! TD*
G04 #@! TO.P,C3,1,1*
G04 #@! TO.N,Net-(C3-Pad1)*
X145450000Y-108900000D03*
G04 #@! TO.P,C3,2,2*
G04 #@! TO.N,GND*
X143900000Y-108900000D03*
G04 #@! TD*
G04 #@! TO.P,C1,1,1*
G04 #@! TO.N,Net-(C1-Pad1)*
X145450000Y-116075000D03*
G04 #@! TO.P,C1,2,2*
G04 #@! TO.N,GND*
X143900000Y-116075000D03*
G04 #@! TD*
D11*
G04 #@! TO.P,X1,1,1*
G04 #@! TO.N,Net-(C1-Pad1)*
X153600000Y-121000000D03*
D12*
G04 #@! TO.P,X1,2@1,2*
G04 #@! TO.N,GND*
X151000000Y-123375000D03*
G04 #@! TO.P,X1,2@2,2*
X156200000Y-123375000D03*
G04 #@! TO.P,X1,2@3,2*
X156200000Y-118625000D03*
G04 #@! TO.P,X1,2@4,2*
X151000000Y-118625000D03*
D13*
G04 #@! TO.P,X1,2@5,2*
X153600000Y-123800000D03*
G04 #@! TO.P,X1,2@6,2*
X153600000Y-118200000D03*
G04 #@! TD*
D14*
G04 #@! TO.P,L4,P$2,2*
G04 #@! TO.N,GND*
X144702000Y-105250000D03*
G04 #@! TO.P,L4,P$1,1*
G04 #@! TO.N,Net-(C3-Pad1)*
X145464000Y-105250000D03*
G04 #@! TD*
D15*
G04 #@! TO.P,L2,1*
G04 #@! TO.N,Net-(C1-Pad1)*
X145450000Y-113975000D03*
G04 #@! TO.P,L2,2*
G04 #@! TO.N,Net-(C3-Pad1)*
X145450000Y-112400000D03*
G04 #@! TD*
D16*
G04 #@! TO.P,L1,1,1*
G04 #@! TO.N,GND*
X143825000Y-119500000D03*
G04 #@! TO.P,L1,2,2*
G04 #@! TO.N,Net-(C1-Pad1)*
X145400000Y-119500000D03*
G04 #@! TD*
D17*
G04 #@! TO.N,GND*
X143900000Y-116075000D02*
X143900000Y-120700000D01*
X146575000Y-123375000D02*
X151000000Y-123375000D01*
X143900000Y-120700000D02*
X146575000Y-123375000D01*
G04 #@! TO.N,Net-(C1-Pad1)*
X153600000Y-121000000D02*
X146900000Y-121000000D01*
X146900000Y-121000000D02*
X145400000Y-119500000D01*
G04 #@! TO.N,GND*
X143900000Y-116075000D02*
X143900000Y-109000000D01*
D18*
X143900000Y-109000000D02*
X143950000Y-108950000D01*
X143800000Y-116175000D02*
X143900000Y-116075000D01*
D17*
G04 #@! TO.N,Net-(C1-Pad1)*
X145450000Y-113975000D02*
X145450000Y-119450000D01*
D18*
X145450000Y-119450000D02*
X145400000Y-119500000D01*
G04 #@! TO.N,Net-(C3-Pad1)*
X145464000Y-105250000D02*
X145464000Y-106536000D01*
X145464000Y-106536000D02*
X145450000Y-106550000D01*
G04 #@! TO.N,GND*
X144702000Y-105250000D02*
X144000000Y-105952000D01*
X144000000Y-105952000D02*
X144000000Y-106000000D01*
D17*
X143950000Y-109550000D02*
X143950000Y-108950000D01*
X143950000Y-109550000D02*
X143950000Y-106050000D01*
G04 #@! TO.N,Net-(C3-Pad1)*
X145450000Y-108900000D02*
X145450000Y-106550000D01*
D18*
G04 #@! TO.N,GND*
X143950000Y-108950000D02*
X143900000Y-108900000D01*
D17*
G04 #@! TO.N,Net-(C3-Pad1)*
X145450000Y-110825000D02*
X145450000Y-108900000D01*
G04 #@! TD*
G04 #@! TA.AperFunction,Conductor*
G04 #@! TO.N,GND*
G36*
X144722622Y-105254427D02*
G01*
X144723477Y-105255381D01*
X144746428Y-105284005D01*
X144749000Y-105291324D01*
X144749000Y-105374929D01*
X144745573Y-105383202D01*
X144701802Y-105426973D01*
X144637018Y-105493078D01*
X144636968Y-105493133D01*
X144636945Y-105493157D01*
X144584513Y-105550600D01*
X144584382Y-105550744D01*
X144584271Y-105550883D01*
X144584262Y-105550893D01*
X144560990Y-105579924D01*
X144542638Y-105602818D01*
X144542485Y-105603053D01*
X144542480Y-105603060D01*
X144512334Y-105649377D01*
X144510531Y-105652148D01*
X144486807Y-105701582D01*
X144470210Y-105753969D01*
X144459485Y-105812156D01*
X144453379Y-105878991D01*
X144453373Y-105879151D01*
X144453373Y-105879157D01*
X144450636Y-105957282D01*
X144450635Y-105957362D01*
X144450000Y-106050000D01*
X144450000Y-106116699D01*
X144446573Y-106124972D01*
X144442165Y-106127742D01*
X144173491Y-106221778D01*
X143958552Y-106297007D01*
X143949611Y-106296506D01*
X143944962Y-106292469D01*
X143827389Y-106116699D01*
X143598422Y-105774399D01*
X143596447Y-105767895D01*
X143596447Y-105701772D01*
X143600463Y-105692949D01*
X143700413Y-105605894D01*
X143701922Y-105604779D01*
X143705079Y-105602818D01*
X143728258Y-105588416D01*
X143797072Y-105545662D01*
X143798849Y-105544758D01*
X143859181Y-105520285D01*
X143888029Y-105508583D01*
X143889633Y-105508065D01*
X143917980Y-105501104D01*
X143975287Y-105487032D01*
X143976229Y-105486841D01*
X144060736Y-105473322D01*
X144145465Y-105459769D01*
X144145715Y-105459729D01*
X144145956Y-105459670D01*
X144145965Y-105459668D01*
X144232253Y-105438478D01*
X144232257Y-105438477D01*
X144232663Y-105438377D01*
X144323551Y-105401510D01*
X144420349Y-105341370D01*
X144423066Y-105339004D01*
X144520803Y-105253877D01*
X144528487Y-105251000D01*
X144714349Y-105251000D01*
X144722622Y-105254427D01*
G37*
G04 #@! TD.AperFunction*
G04 #@! TA.AperFunction,Conductor*
G36*
X144621594Y-105168368D02*
G01*
X144696181Y-105228172D01*
X144700492Y-105236021D01*
X144697990Y-105244619D01*
X144690141Y-105248930D01*
X144688862Y-105249000D01*
X144554471Y-105249000D01*
X144546198Y-105245573D01*
X144542771Y-105237300D01*
X144546198Y-105229027D01*
X144606002Y-105169223D01*
X144614275Y-105165796D01*
X144621594Y-105168368D01*
G37*
G04 #@! TD.AperFunction*
G04 #@! TD*
G04 #@! TA.AperFunction,Conductor*
G04 #@! TO.N,Net-(C3-Pad1)*
G36*
X145938766Y-106442837D02*
G01*
X145942085Y-106450115D01*
X145949963Y-106549533D01*
X145950000Y-106550457D01*
X145950000Y-106616699D01*
X145946573Y-106624972D01*
X145942165Y-106627742D01*
X145453865Y-106798647D01*
X145446135Y-106798647D01*
X145441341Y-106796970D01*
X145432712Y-106793949D01*
X145426037Y-106787983D01*
X145425535Y-106779042D01*
X145431959Y-106772157D01*
X145521809Y-106733554D01*
X145521811Y-106733553D01*
X145522202Y-106733385D01*
X145522563Y-106733162D01*
X145522568Y-106733159D01*
X145732604Y-106603185D01*
X145732609Y-106603181D01*
X145732978Y-106602953D01*
X145835004Y-106516582D01*
X145921830Y-106443079D01*
X145921835Y-106443074D01*
X145922160Y-106442799D01*
X145922268Y-106442675D01*
X145930523Y-106439339D01*
X145938766Y-106442837D01*
G37*
G04 #@! TD.AperFunction*
G04 #@! TA.AperFunction,Conductor*
G36*
X145578579Y-105542355D02*
G01*
X145586428Y-105546666D01*
X145589000Y-105553985D01*
X145589000Y-105668501D01*
X145599108Y-105796058D01*
X145626544Y-105897344D01*
X145666976Y-105978926D01*
X145716072Y-106047372D01*
X145716241Y-106047568D01*
X145716242Y-106047569D01*
X145822586Y-106170732D01*
X145823237Y-106171559D01*
X145871033Y-106238193D01*
X145871468Y-106238800D01*
X145872444Y-106240424D01*
X145911946Y-106320129D01*
X145912756Y-106322265D01*
X145936191Y-106408778D01*
X145935046Y-106417659D01*
X145933703Y-106419539D01*
X145918052Y-106437386D01*
X145916823Y-106438594D01*
X145729716Y-106596991D01*
X145728313Y-106598010D01*
X145519860Y-106727005D01*
X145518322Y-106727806D01*
X145453642Y-106755595D01*
X145399235Y-106778970D01*
X145390752Y-106779263D01*
X144957835Y-106627742D01*
X144951158Y-106621775D01*
X144950000Y-106616699D01*
X144950000Y-106550490D01*
X144950042Y-106549504D01*
X144950876Y-106539647D01*
X144960794Y-106422419D01*
X144961216Y-106420142D01*
X144964521Y-106408778D01*
X144978059Y-106362214D01*
X144990115Y-106320751D01*
X144991035Y-106318496D01*
X145033552Y-106239075D01*
X145034640Y-106237403D01*
X145086592Y-106170770D01*
X145087304Y-106169940D01*
X145201886Y-106048359D01*
X145201892Y-106048352D01*
X145202072Y-106048161D01*
X145254975Y-105980307D01*
X145255508Y-105979313D01*
X145273314Y-105946051D01*
X145298544Y-105898923D01*
X145298853Y-105897862D01*
X145327946Y-105797799D01*
X145328108Y-105797242D01*
X145339000Y-105668501D01*
X145339000Y-105553985D01*
X145342427Y-105545712D01*
X145349421Y-105542355D01*
X145462721Y-105529892D01*
X145465279Y-105529892D01*
X145578579Y-105542355D01*
G37*
G04 #@! TD.AperFunction*
G04 #@! TD*
M02*
