G04 #@! TF.GenerationSoftware,KiCad,Pcbnew,(6.0.11)*
G04 #@! TF.CreationDate,2023-07-14T11:52:07+02:00*
G04 #@! TF.ProjectId,quakesr_large01,7175616b-6573-4725-9f6c-617267653031,rev?*
G04 #@! TF.SameCoordinates,Original*
G04 #@! TF.FileFunction,Soldermask,Bot*
G04 #@! TF.FilePolarity,Negative*
%FSLAX46Y46*%
G04 Gerber Fmt 4.6, Leading zero omitted, Abs format (unit mm)*
G04 Created by KiCad (PCBNEW (6.0.11)) date 2023-07-14 11:52:07*
%MOMM*%
%LPD*%
G01*
G04 APERTURE LIST*
G04 APERTURE END LIST*
G36*
X168192121Y-83270002D02*
G01*
X168238614Y-83323658D01*
X168250000Y-83376000D01*
X168250000Y-88169465D01*
X168229998Y-88237586D01*
X168176910Y-88283818D01*
X151525173Y-95988353D01*
X151472263Y-96000000D01*
X147018115Y-96000000D01*
X147002876Y-96004475D01*
X147001671Y-96005865D01*
X147000000Y-96013548D01*
X147000000Y-103481885D01*
X147004475Y-103497124D01*
X147005865Y-103498329D01*
X147013548Y-103500000D01*
X150447810Y-103500000D01*
X150515931Y-103520002D01*
X150536905Y-103536905D01*
X150963095Y-103963095D01*
X150997121Y-104025407D01*
X151000000Y-104052190D01*
X151000000Y-106447810D01*
X150979998Y-106515931D01*
X150963095Y-106536905D01*
X150536905Y-106963095D01*
X150474593Y-106997121D01*
X150447810Y-107000000D01*
X147018115Y-107000000D01*
X147002876Y-107004475D01*
X147001671Y-107005865D01*
X147000000Y-107013548D01*
X147000000Y-114481885D01*
X147004475Y-114497124D01*
X147005865Y-114498329D01*
X147013548Y-114500000D01*
X151472263Y-114500000D01*
X151525173Y-114511647D01*
X168176910Y-122216182D01*
X168230334Y-122262940D01*
X168250000Y-122330535D01*
X168250000Y-127124000D01*
X168229998Y-127192121D01*
X168176342Y-127238614D01*
X168124000Y-127250000D01*
X121376000Y-127250000D01*
X121307879Y-127229998D01*
X121261386Y-127176342D01*
X121250000Y-127124000D01*
X121250000Y-123646068D01*
X122755025Y-123646068D01*
X122755587Y-123654459D01*
X122794525Y-123943993D01*
X122796199Y-123952233D01*
X122873383Y-124233998D01*
X122876137Y-124241929D01*
X122990189Y-124510896D01*
X122993979Y-124518397D01*
X123142859Y-124769757D01*
X123147614Y-124776683D01*
X123328678Y-125005968D01*
X123334307Y-125012191D01*
X123544315Y-125215294D01*
X123550720Y-125220710D01*
X123785930Y-125394014D01*
X123793004Y-125398530D01*
X124049202Y-125538930D01*
X124056829Y-125542469D01*
X124329445Y-125647465D01*
X124337481Y-125649958D01*
X124621658Y-125717681D01*
X124629957Y-125719080D01*
X124920616Y-125748322D01*
X124929030Y-125748603D01*
X125221008Y-125738841D01*
X125229368Y-125738000D01*
X125517441Y-125689408D01*
X125525618Y-125687459D01*
X125804643Y-125600904D01*
X125812486Y-125597884D01*
X126077492Y-125474908D01*
X126084858Y-125470872D01*
X126331106Y-125313673D01*
X126337871Y-125308688D01*
X126560964Y-125120074D01*
X126567010Y-125114228D01*
X126762976Y-124897559D01*
X126768181Y-124890968D01*
X126933518Y-124650112D01*
X126937807Y-124642871D01*
X127069556Y-124382148D01*
X127072848Y-124374384D01*
X127168673Y-124098424D01*
X127170896Y-124090308D01*
X127229085Y-123804024D01*
X127230205Y-123795698D01*
X127240222Y-123646068D01*
X159255025Y-123646068D01*
X159255587Y-123654459D01*
X159294525Y-123943993D01*
X159296199Y-123952233D01*
X159373383Y-124233998D01*
X159376137Y-124241929D01*
X159490189Y-124510896D01*
X159493979Y-124518397D01*
X159642859Y-124769757D01*
X159647614Y-124776683D01*
X159828678Y-125005968D01*
X159834307Y-125012191D01*
X160044315Y-125215294D01*
X160050720Y-125220710D01*
X160285930Y-125394014D01*
X160293004Y-125398530D01*
X160549202Y-125538930D01*
X160556829Y-125542469D01*
X160829445Y-125647465D01*
X160837481Y-125649958D01*
X161121658Y-125717681D01*
X161129957Y-125719080D01*
X161420616Y-125748322D01*
X161429030Y-125748603D01*
X161721008Y-125738841D01*
X161729368Y-125738000D01*
X162017441Y-125689408D01*
X162025618Y-125687459D01*
X162304643Y-125600904D01*
X162312486Y-125597884D01*
X162577492Y-125474908D01*
X162584858Y-125470872D01*
X162831106Y-125313673D01*
X162837871Y-125308688D01*
X163060964Y-125120074D01*
X163067010Y-125114228D01*
X163262976Y-124897559D01*
X163268181Y-124890968D01*
X163433518Y-124650112D01*
X163437807Y-124642871D01*
X163569556Y-124382148D01*
X163572848Y-124374384D01*
X163668673Y-124098424D01*
X163670896Y-124090308D01*
X163729085Y-123804024D01*
X163730205Y-123795698D01*
X163749719Y-123504198D01*
X163749719Y-123495802D01*
X163730205Y-123204302D01*
X163729085Y-123195976D01*
X163670896Y-122909692D01*
X163668673Y-122901576D01*
X163572848Y-122625616D01*
X163569556Y-122617852D01*
X163437807Y-122357129D01*
X163433518Y-122349888D01*
X163268181Y-122109032D01*
X163262976Y-122102441D01*
X163067010Y-121885772D01*
X163060964Y-121879926D01*
X162837871Y-121691312D01*
X162831106Y-121686327D01*
X162584858Y-121529128D01*
X162577492Y-121525092D01*
X162312486Y-121402116D01*
X162304643Y-121399096D01*
X162025618Y-121312541D01*
X162017441Y-121310592D01*
X161729368Y-121262000D01*
X161721008Y-121261159D01*
X161429030Y-121251397D01*
X161420616Y-121251678D01*
X161129957Y-121280920D01*
X161121658Y-121282319D01*
X160837481Y-121350042D01*
X160829445Y-121352535D01*
X160556829Y-121457531D01*
X160549202Y-121461070D01*
X160293004Y-121601470D01*
X160285930Y-121605986D01*
X160050720Y-121779290D01*
X160044315Y-121784706D01*
X159834307Y-121987809D01*
X159828678Y-121994032D01*
X159647614Y-122223317D01*
X159642859Y-122230243D01*
X159493979Y-122481603D01*
X159490189Y-122489104D01*
X159376137Y-122758071D01*
X159373383Y-122766002D01*
X159296199Y-123047767D01*
X159294525Y-123056007D01*
X159255587Y-123345541D01*
X159255025Y-123353933D01*
X159255025Y-123646068D01*
X127240222Y-123646068D01*
X127249719Y-123504198D01*
X127249719Y-123495802D01*
X127230205Y-123204302D01*
X127229085Y-123195976D01*
X127170896Y-122909692D01*
X127168673Y-122901576D01*
X127072848Y-122625616D01*
X127069556Y-122617852D01*
X126937807Y-122357129D01*
X126933518Y-122349888D01*
X126768181Y-122109032D01*
X126762976Y-122102441D01*
X126567010Y-121885772D01*
X126560964Y-121879926D01*
X126337871Y-121691312D01*
X126331106Y-121686327D01*
X126084858Y-121529128D01*
X126077492Y-121525092D01*
X125812486Y-121402116D01*
X125804643Y-121399096D01*
X125525618Y-121312541D01*
X125517441Y-121310592D01*
X125229368Y-121262000D01*
X125221008Y-121261159D01*
X124929030Y-121251397D01*
X124920616Y-121251678D01*
X124629957Y-121280920D01*
X124621658Y-121282319D01*
X124337481Y-121350042D01*
X124329445Y-121352535D01*
X124056829Y-121457531D01*
X124049202Y-121461070D01*
X123793004Y-121601470D01*
X123785930Y-121605986D01*
X123550720Y-121779290D01*
X123544315Y-121784706D01*
X123334307Y-121987809D01*
X123328678Y-121994032D01*
X123147614Y-122223317D01*
X123142859Y-122230243D01*
X122993979Y-122481603D01*
X122990189Y-122489104D01*
X122876137Y-122758071D01*
X122873383Y-122766002D01*
X122796199Y-123047767D01*
X122794525Y-123056007D01*
X122755587Y-123345541D01*
X122755025Y-123353933D01*
X122755025Y-123646068D01*
X121250000Y-123646068D01*
X121250000Y-117610315D01*
X121270002Y-117542194D01*
X121323658Y-117495701D01*
X121359347Y-117485420D01*
X139982042Y-115002394D01*
X139996559Y-114995944D01*
X139999991Y-114990721D01*
X140000000Y-114990663D01*
X140000000Y-95018115D01*
X139995525Y-95002876D01*
X139990799Y-94998781D01*
X139990750Y-94998767D01*
X121359347Y-92514580D01*
X121294468Y-92485750D01*
X121255474Y-92426420D01*
X121250000Y-92389685D01*
X121250000Y-87146068D01*
X122755025Y-87146068D01*
X122755587Y-87154459D01*
X122794525Y-87443993D01*
X122796199Y-87452233D01*
X122873383Y-87733998D01*
X122876137Y-87741929D01*
X122990189Y-88010896D01*
X122993979Y-88018397D01*
X123142859Y-88269757D01*
X123147614Y-88276683D01*
X123328678Y-88505968D01*
X123334307Y-88512191D01*
X123544315Y-88715294D01*
X123550720Y-88720710D01*
X123785930Y-88894014D01*
X123793004Y-88898530D01*
X124049202Y-89038930D01*
X124056829Y-89042469D01*
X124329445Y-89147465D01*
X124337481Y-89149958D01*
X124621658Y-89217681D01*
X124629957Y-89219080D01*
X124920616Y-89248322D01*
X124929030Y-89248603D01*
X125221008Y-89238841D01*
X125229368Y-89238000D01*
X125517441Y-89189408D01*
X125525618Y-89187459D01*
X125804643Y-89100904D01*
X125812486Y-89097884D01*
X126077492Y-88974908D01*
X126084858Y-88970872D01*
X126331106Y-88813673D01*
X126337871Y-88808688D01*
X126560964Y-88620074D01*
X126567010Y-88614228D01*
X126762976Y-88397559D01*
X126768181Y-88390968D01*
X126933518Y-88150112D01*
X126937807Y-88142871D01*
X127069556Y-87882148D01*
X127072848Y-87874384D01*
X127168673Y-87598424D01*
X127170896Y-87590308D01*
X127229085Y-87304024D01*
X127230205Y-87295698D01*
X127240222Y-87146068D01*
X159255025Y-87146068D01*
X159255587Y-87154459D01*
X159294525Y-87443993D01*
X159296199Y-87452233D01*
X159373383Y-87733998D01*
X159376137Y-87741929D01*
X159490189Y-88010896D01*
X159493979Y-88018397D01*
X159642859Y-88269757D01*
X159647614Y-88276683D01*
X159828678Y-88505968D01*
X159834307Y-88512191D01*
X160044315Y-88715294D01*
X160050720Y-88720710D01*
X160285930Y-88894014D01*
X160293004Y-88898530D01*
X160549202Y-89038930D01*
X160556829Y-89042469D01*
X160829445Y-89147465D01*
X160837481Y-89149958D01*
X161121658Y-89217681D01*
X161129957Y-89219080D01*
X161420616Y-89248322D01*
X161429030Y-89248603D01*
X161721008Y-89238841D01*
X161729368Y-89238000D01*
X162017441Y-89189408D01*
X162025618Y-89187459D01*
X162304643Y-89100904D01*
X162312486Y-89097884D01*
X162577492Y-88974908D01*
X162584858Y-88970872D01*
X162831106Y-88813673D01*
X162837871Y-88808688D01*
X163060964Y-88620074D01*
X163067010Y-88614228D01*
X163262976Y-88397559D01*
X163268181Y-88390968D01*
X163433518Y-88150112D01*
X163437807Y-88142871D01*
X163569556Y-87882148D01*
X163572848Y-87874384D01*
X163668673Y-87598424D01*
X163670896Y-87590308D01*
X163729085Y-87304024D01*
X163730205Y-87295698D01*
X163749719Y-87004198D01*
X163749719Y-86995802D01*
X163730205Y-86704302D01*
X163729085Y-86695976D01*
X163670896Y-86409692D01*
X163668673Y-86401576D01*
X163572848Y-86125616D01*
X163569556Y-86117852D01*
X163437807Y-85857129D01*
X163433518Y-85849888D01*
X163268181Y-85609032D01*
X163262976Y-85602441D01*
X163067010Y-85385772D01*
X163060964Y-85379926D01*
X162837871Y-85191312D01*
X162831106Y-85186327D01*
X162584858Y-85029128D01*
X162577492Y-85025092D01*
X162312486Y-84902116D01*
X162304643Y-84899096D01*
X162025618Y-84812541D01*
X162017441Y-84810592D01*
X161729368Y-84762000D01*
X161721008Y-84761159D01*
X161429030Y-84751397D01*
X161420616Y-84751678D01*
X161129957Y-84780920D01*
X161121658Y-84782319D01*
X160837481Y-84850042D01*
X160829445Y-84852535D01*
X160556829Y-84957531D01*
X160549202Y-84961070D01*
X160293004Y-85101470D01*
X160285930Y-85105986D01*
X160050720Y-85279290D01*
X160044315Y-85284706D01*
X159834307Y-85487809D01*
X159828678Y-85494032D01*
X159647614Y-85723317D01*
X159642859Y-85730243D01*
X159493979Y-85981603D01*
X159490189Y-85989104D01*
X159376137Y-86258071D01*
X159373383Y-86266002D01*
X159296199Y-86547767D01*
X159294525Y-86556007D01*
X159255587Y-86845541D01*
X159255025Y-86853933D01*
X159255025Y-87146068D01*
X127240222Y-87146068D01*
X127249719Y-87004198D01*
X127249719Y-86995802D01*
X127230205Y-86704302D01*
X127229085Y-86695976D01*
X127170896Y-86409692D01*
X127168673Y-86401576D01*
X127072848Y-86125616D01*
X127069556Y-86117852D01*
X126937807Y-85857129D01*
X126933518Y-85849888D01*
X126768181Y-85609032D01*
X126762976Y-85602441D01*
X126567010Y-85385772D01*
X126560964Y-85379926D01*
X126337871Y-85191312D01*
X126331106Y-85186327D01*
X126084858Y-85029128D01*
X126077492Y-85025092D01*
X125812486Y-84902116D01*
X125804643Y-84899096D01*
X125525618Y-84812541D01*
X125517441Y-84810592D01*
X125229368Y-84762000D01*
X125221008Y-84761159D01*
X124929030Y-84751397D01*
X124920616Y-84751678D01*
X124629957Y-84780920D01*
X124621658Y-84782319D01*
X124337481Y-84850042D01*
X124329445Y-84852535D01*
X124056829Y-84957531D01*
X124049202Y-84961070D01*
X123793004Y-85101470D01*
X123785930Y-85105986D01*
X123550720Y-85279290D01*
X123544315Y-85284706D01*
X123334307Y-85487809D01*
X123328678Y-85494032D01*
X123147614Y-85723317D01*
X123142859Y-85730243D01*
X122993979Y-85981603D01*
X122990189Y-85989104D01*
X122876137Y-86258071D01*
X122873383Y-86266002D01*
X122796199Y-86547767D01*
X122794525Y-86556007D01*
X122755587Y-86845541D01*
X122755025Y-86853933D01*
X122755025Y-87146068D01*
X121250000Y-87146068D01*
X121250000Y-83376000D01*
X121270002Y-83307879D01*
X121323658Y-83261386D01*
X121376000Y-83250000D01*
X168124000Y-83250000D01*
X168192121Y-83270002D01*
G37*
M02*
