G04 #@! TF.GenerationSoftware,KiCad,Pcbnew,(6.0.11)*
G04 #@! TF.CreationDate,2023-07-14T12:12:51+02:00*
G04 #@! TF.ProjectId,quakesr_large01,7175616b-6573-4725-9f6c-617267653031,rev?*
G04 #@! TF.SameCoordinates,Original*
G04 #@! TF.FileFunction,Copper,L2,Bot*
G04 #@! TF.FilePolarity,Positive*
%FSLAX46Y46*%
G04 Gerber Fmt 4.6, Leading zero omitted, Abs format (unit mm)*
G04 Created by KiCad (PCBNEW (6.0.11)) date 2023-07-14 12:12:51*
%MOMM*%
%LPD*%
G01*
G04 APERTURE LIST*
G04 #@! TA.AperFunction,EtchedComponent*
%ADD10C,0.100000*%
G04 #@! TD*
G04 #@! TA.AperFunction,ComponentPad*
%ADD11C,0.400000*%
G04 #@! TD*
G04 APERTURE END LIST*
D10*
G04 #@! TO.C,L4*
X145250000Y-106050000D02*
G75*
G03*
X145450000Y-106250000I200000J0D01*
G01*
X145050000Y-106250000D02*
G75*
G03*
X145250000Y-106450000I200000J0D01*
G01*
X150250000Y-104450000D02*
G75*
G03*
X150050000Y-104250000I-200001J-1D01*
G01*
X150250000Y-106450000D02*
G75*
G03*
X150450000Y-106250000I-1J200001D01*
G01*
X145050000Y-104050000D02*
G75*
G03*
X144850000Y-104250000I0J-200000D01*
G01*
X145250000Y-104250000D02*
G75*
G03*
X145050000Y-104450000I0J-200000D01*
G01*
X150450000Y-104250000D02*
G75*
G03*
X150250000Y-104050000I-200001J-1D01*
G01*
X150050000Y-106250000D02*
G75*
G03*
X150250000Y-106050000I-1J200001D01*
G01*
X150250000Y-106050000D02*
X150250000Y-104450000D01*
X150050000Y-106250000D02*
X145450000Y-106250000D01*
X145264000Y-105250000D02*
X145464000Y-105250000D01*
X150250000Y-104050000D02*
X145050000Y-104050000D01*
X144850000Y-105250000D02*
X144850000Y-104250000D01*
X145050000Y-106250000D02*
X145050000Y-104450000D01*
X150250000Y-106450000D02*
X145250000Y-106450000D01*
X150050000Y-104250000D02*
X145250000Y-104250000D01*
X150450000Y-106250000D02*
X150450000Y-104250000D01*
X145250000Y-106050000D02*
X145250000Y-105250000D01*
G04 #@! TD*
D11*
G04 #@! TO.P,L4,P$2,2*
G04 #@! TO.N,GND*
X144702000Y-105250000D03*
G04 #@! TO.P,L4,P$1,1*
G04 #@! TO.N,Net-(C3-Pad1)*
X145464000Y-105250000D03*
G04 #@! TD*
G04 #@! TA.AperFunction,NonConductor*
G36*
X167683621Y-83778502D02*
G01*
X167730114Y-83832158D01*
X167741500Y-83884500D01*
X167741500Y-87844450D01*
X167721498Y-87912571D01*
X167668411Y-87958802D01*
X152354479Y-95044352D01*
X151413235Y-95479853D01*
X151360325Y-95491500D01*
X147008623Y-95491500D01*
X147007853Y-95491498D01*
X147007037Y-95491493D01*
X146930279Y-95491024D01*
X146907918Y-95497415D01*
X146901847Y-95499150D01*
X146885085Y-95502728D01*
X146855813Y-95506920D01*
X146847645Y-95510634D01*
X146847644Y-95510634D01*
X146832438Y-95517548D01*
X146814914Y-95523996D01*
X146790229Y-95531051D01*
X146782635Y-95535843D01*
X146782632Y-95535844D01*
X146765220Y-95546830D01*
X146750137Y-95554969D01*
X146723218Y-95567208D01*
X146716416Y-95573069D01*
X146703765Y-95583970D01*
X146688761Y-95595073D01*
X146667042Y-95608776D01*
X146661103Y-95615501D01*
X146661099Y-95615504D01*
X146647468Y-95630938D01*
X146635276Y-95642982D01*
X146619673Y-95656427D01*
X146619671Y-95656430D01*
X146612873Y-95662287D01*
X146607993Y-95669816D01*
X146607992Y-95669817D01*
X146598906Y-95683835D01*
X146587615Y-95698709D01*
X146576569Y-95711217D01*
X146570622Y-95717951D01*
X146558058Y-95744711D01*
X146549737Y-95759691D01*
X146538529Y-95776983D01*
X146538527Y-95776988D01*
X146533648Y-95784515D01*
X146531078Y-95793108D01*
X146531076Y-95793113D01*
X146526289Y-95809120D01*
X146519628Y-95826564D01*
X146508719Y-95849800D01*
X146507338Y-95858667D01*
X146507338Y-95858668D01*
X146504170Y-95879015D01*
X146500387Y-95895732D01*
X146494485Y-95915466D01*
X146494484Y-95915472D01*
X146491914Y-95924066D01*
X146491859Y-95933037D01*
X146491859Y-95933038D01*
X146491704Y-95958497D01*
X146491671Y-95959289D01*
X146491500Y-95960386D01*
X146491500Y-95991377D01*
X146491498Y-95992147D01*
X146491024Y-96069721D01*
X146491408Y-96071065D01*
X146491500Y-96072410D01*
X146491500Y-103365500D01*
X146471498Y-103433621D01*
X146417842Y-103480114D01*
X146365500Y-103491500D01*
X145094862Y-103491500D01*
X145078415Y-103490422D01*
X145058188Y-103487759D01*
X145050000Y-103486681D01*
X145041813Y-103487759D01*
X145041810Y-103487759D01*
X145017384Y-103490975D01*
X145016869Y-103491034D01*
X145016827Y-103491049D01*
X145016176Y-103491135D01*
X145015350Y-103491243D01*
X145015337Y-103491245D01*
X145015333Y-103491212D01*
X145013361Y-103491439D01*
X145012976Y-103491477D01*
X145012816Y-103491493D01*
X145012704Y-103490365D01*
X145011628Y-103490721D01*
X145011734Y-103491491D01*
X145011669Y-103491500D01*
X145011666Y-103491500D01*
X145011321Y-103491547D01*
X145008864Y-103491837D01*
X145008868Y-103491882D01*
X145007801Y-103491987D01*
X145007800Y-103491987D01*
X144938516Y-103498811D01*
X144932602Y-103499393D01*
X144920253Y-103500000D01*
X144500000Y-103500000D01*
X144500000Y-103679462D01*
X144479998Y-103747583D01*
X144471400Y-103759395D01*
X144416279Y-103826561D01*
X144345847Y-103958330D01*
X144344050Y-103964254D01*
X144320709Y-104041200D01*
X144302475Y-104101308D01*
X144301868Y-104107472D01*
X144298954Y-104137062D01*
X144294558Y-104159863D01*
X144292297Y-104167646D01*
X144291500Y-104178499D01*
X144291500Y-104205139D01*
X144290422Y-104221587D01*
X144286681Y-104250000D01*
X144287759Y-104258188D01*
X144290422Y-104278415D01*
X144291500Y-104294862D01*
X144291500Y-104610567D01*
X144271498Y-104678688D01*
X144248329Y-104705516D01*
X144177341Y-104767443D01*
X144177337Y-104767447D01*
X144171615Y-104772439D01*
X144073010Y-104912739D01*
X144010718Y-105072509D01*
X143988335Y-105242526D01*
X144007153Y-105412975D01*
X144009762Y-105420106D01*
X144009763Y-105420108D01*
X144032802Y-105483064D01*
X144066085Y-105574015D01*
X144161730Y-105716349D01*
X144288565Y-105831760D01*
X144295240Y-105835384D01*
X144425622Y-105906176D01*
X144475944Y-105956259D01*
X144491500Y-106016907D01*
X144491500Y-106205138D01*
X144490422Y-106221585D01*
X144486681Y-106250000D01*
X144487759Y-106258187D01*
X144487759Y-106258190D01*
X144490975Y-106282616D01*
X144491034Y-106283131D01*
X144491049Y-106283173D01*
X144491245Y-106284663D01*
X144491212Y-106284667D01*
X144491439Y-106286639D01*
X144491493Y-106287184D01*
X144490365Y-106287296D01*
X144490721Y-106288372D01*
X144491491Y-106288266D01*
X144491500Y-106288331D01*
X144491500Y-106288334D01*
X144491547Y-106288679D01*
X144491837Y-106291136D01*
X144491882Y-106291132D01*
X144492216Y-106294519D01*
X144499393Y-106367398D01*
X144500000Y-106379747D01*
X144500000Y-107000000D01*
X145120255Y-107000000D01*
X145132603Y-107000607D01*
X145137061Y-107001046D01*
X145159863Y-107005442D01*
X145167646Y-107007703D01*
X145174229Y-107008186D01*
X145174232Y-107008187D01*
X145176192Y-107008331D01*
X145176203Y-107008331D01*
X145178499Y-107008500D01*
X145205139Y-107008500D01*
X145221587Y-107009578D01*
X145241812Y-107012241D01*
X145241813Y-107012241D01*
X145250000Y-107013319D01*
X145258188Y-107012241D01*
X145278415Y-107009578D01*
X145294862Y-107008500D01*
X146365500Y-107008500D01*
X146433621Y-107028502D01*
X146480114Y-107082158D01*
X146491500Y-107134500D01*
X146491500Y-114491377D01*
X146491498Y-114492147D01*
X146491024Y-114569721D01*
X146493491Y-114578352D01*
X146499150Y-114598153D01*
X146502728Y-114614915D01*
X146506920Y-114644187D01*
X146510634Y-114652355D01*
X146510634Y-114652356D01*
X146517548Y-114667562D01*
X146523996Y-114685086D01*
X146531051Y-114709771D01*
X146535843Y-114717365D01*
X146535844Y-114717368D01*
X146546830Y-114734780D01*
X146554969Y-114749863D01*
X146567208Y-114776782D01*
X146573069Y-114783584D01*
X146583970Y-114796235D01*
X146595073Y-114811239D01*
X146608776Y-114832958D01*
X146615501Y-114838897D01*
X146615504Y-114838901D01*
X146630938Y-114852532D01*
X146642982Y-114864724D01*
X146656427Y-114880327D01*
X146656430Y-114880329D01*
X146662287Y-114887127D01*
X146669816Y-114892007D01*
X146669817Y-114892008D01*
X146683835Y-114901094D01*
X146698709Y-114912385D01*
X146711217Y-114923431D01*
X146717951Y-114929378D01*
X146744711Y-114941942D01*
X146759691Y-114950263D01*
X146776983Y-114961471D01*
X146776988Y-114961473D01*
X146784515Y-114966352D01*
X146793108Y-114968922D01*
X146793113Y-114968924D01*
X146809120Y-114973711D01*
X146826564Y-114980372D01*
X146841676Y-114987467D01*
X146841678Y-114987468D01*
X146849800Y-114991281D01*
X146858667Y-114992662D01*
X146858668Y-114992662D01*
X146868310Y-114994163D01*
X146879017Y-114995830D01*
X146895732Y-114999613D01*
X146915466Y-115005515D01*
X146915472Y-115005516D01*
X146924066Y-115008086D01*
X146933037Y-115008141D01*
X146933038Y-115008141D01*
X146943097Y-115008202D01*
X146958506Y-115008296D01*
X146959289Y-115008329D01*
X146960386Y-115008500D01*
X146991377Y-115008500D01*
X146992147Y-115008502D01*
X147065785Y-115008952D01*
X147065786Y-115008952D01*
X147069721Y-115008976D01*
X147071065Y-115008592D01*
X147072410Y-115008500D01*
X151360325Y-115008500D01*
X151413234Y-115020147D01*
X167668411Y-122541199D01*
X167721834Y-122587956D01*
X167741500Y-122655551D01*
X167741500Y-126615500D01*
X167721498Y-126683621D01*
X167667842Y-126730114D01*
X167615500Y-126741500D01*
X121884500Y-126741500D01*
X121816379Y-126721498D01*
X121769886Y-126667842D01*
X121758500Y-126615500D01*
X121758500Y-123471061D01*
X122236610Y-123471061D01*
X122253147Y-123803255D01*
X122253788Y-123806986D01*
X122253789Y-123806994D01*
X122268586Y-123893103D01*
X122309474Y-124131057D01*
X122404774Y-124449718D01*
X122406287Y-124453189D01*
X122406289Y-124453195D01*
X122488810Y-124642527D01*
X122537666Y-124754622D01*
X122706226Y-125041352D01*
X122708527Y-125044367D01*
X122905712Y-125302742D01*
X122905717Y-125302748D01*
X122908012Y-125305755D01*
X123140102Y-125544002D01*
X123399132Y-125752640D01*
X123681352Y-125928648D01*
X123982672Y-126069476D01*
X124298729Y-126173085D01*
X124624944Y-126237973D01*
X124628716Y-126238260D01*
X124628724Y-126238261D01*
X124952815Y-126262914D01*
X124952820Y-126262914D01*
X124956592Y-126263201D01*
X125288869Y-126248403D01*
X125293401Y-126247649D01*
X125613220Y-126194417D01*
X125613225Y-126194416D01*
X125616961Y-126193794D01*
X125936116Y-126100164D01*
X125939583Y-126098674D01*
X125939587Y-126098673D01*
X126238228Y-125970366D01*
X126238230Y-125970365D01*
X126241712Y-125968869D01*
X126529321Y-125801813D01*
X126532343Y-125799532D01*
X126532347Y-125799529D01*
X126791753Y-125603697D01*
X126791754Y-125603696D01*
X126794777Y-125601414D01*
X127034235Y-125370575D01*
X127244227Y-125112641D01*
X127421710Y-124831347D01*
X127564114Y-124530767D01*
X127669377Y-124215257D01*
X127735972Y-123889386D01*
X127762936Y-123557875D01*
X127763542Y-123500000D01*
X127762026Y-123474853D01*
X127761797Y-123471061D01*
X158736610Y-123471061D01*
X158753147Y-123803255D01*
X158753788Y-123806986D01*
X158753789Y-123806994D01*
X158768586Y-123893103D01*
X158809474Y-124131057D01*
X158904774Y-124449718D01*
X158906287Y-124453189D01*
X158906289Y-124453195D01*
X158988810Y-124642527D01*
X159037666Y-124754622D01*
X159206226Y-125041352D01*
X159208527Y-125044367D01*
X159405712Y-125302742D01*
X159405717Y-125302748D01*
X159408012Y-125305755D01*
X159640102Y-125544002D01*
X159899132Y-125752640D01*
X160181352Y-125928648D01*
X160482672Y-126069476D01*
X160798729Y-126173085D01*
X161124944Y-126237973D01*
X161128716Y-126238260D01*
X161128724Y-126238261D01*
X161452815Y-126262914D01*
X161452820Y-126262914D01*
X161456592Y-126263201D01*
X161788869Y-126248403D01*
X161793401Y-126247649D01*
X162113220Y-126194417D01*
X162113225Y-126194416D01*
X162116961Y-126193794D01*
X162436116Y-126100164D01*
X162439583Y-126098674D01*
X162439587Y-126098673D01*
X162738228Y-125970366D01*
X162738230Y-125970365D01*
X162741712Y-125968869D01*
X163029321Y-125801813D01*
X163032343Y-125799532D01*
X163032347Y-125799529D01*
X163291753Y-125603697D01*
X163291754Y-125603696D01*
X163294777Y-125601414D01*
X163534235Y-125370575D01*
X163744227Y-125112641D01*
X163921710Y-124831347D01*
X164064114Y-124530767D01*
X164169377Y-124215257D01*
X164235972Y-123889386D01*
X164262936Y-123557875D01*
X164263542Y-123500000D01*
X164262026Y-123474853D01*
X164243755Y-123171772D01*
X164243754Y-123171765D01*
X164243527Y-123167997D01*
X164183770Y-122840803D01*
X164155658Y-122750265D01*
X164105259Y-122587956D01*
X164085139Y-122523157D01*
X163949061Y-122219662D01*
X163864108Y-122078555D01*
X163779466Y-121937966D01*
X163779462Y-121937960D01*
X163777507Y-121934713D01*
X163775180Y-121931729D01*
X163775175Y-121931722D01*
X163575294Y-121675425D01*
X163575288Y-121675418D01*
X163572963Y-121672437D01*
X163338392Y-121436634D01*
X163077191Y-121230720D01*
X162793144Y-121057677D01*
X162672046Y-121002617D01*
X162493817Y-120921580D01*
X162493809Y-120921577D01*
X162490365Y-120920011D01*
X162173240Y-120819718D01*
X161950896Y-120777906D01*
X161850087Y-120758949D01*
X161850085Y-120758949D01*
X161846364Y-120758249D01*
X161514470Y-120736496D01*
X161510690Y-120736704D01*
X161510689Y-120736704D01*
X161412918Y-120742085D01*
X161182366Y-120754773D01*
X161178639Y-120755434D01*
X161178635Y-120755434D01*
X160919510Y-120801358D01*
X160854864Y-120812815D01*
X160851239Y-120813920D01*
X160851234Y-120813921D01*
X160643683Y-120877178D01*
X160536707Y-120909782D01*
X160533243Y-120911313D01*
X160533236Y-120911316D01*
X160346051Y-120994070D01*
X160232503Y-121044269D01*
X160229249Y-121046205D01*
X160229243Y-121046208D01*
X159949918Y-121212389D01*
X159946659Y-121214328D01*
X159683316Y-121417496D01*
X159446288Y-121650829D01*
X159239009Y-121910949D01*
X159064481Y-122194086D01*
X158925232Y-122496140D01*
X158924073Y-122499740D01*
X158924070Y-122499747D01*
X158873897Y-122655551D01*
X158823280Y-122812735D01*
X158822561Y-122816451D01*
X158822559Y-122816459D01*
X158760819Y-123135567D01*
X158760100Y-123139285D01*
X158759833Y-123143061D01*
X158759832Y-123143066D01*
X158758067Y-123167997D01*
X158737789Y-123454413D01*
X158736610Y-123471061D01*
X127761797Y-123471061D01*
X127743755Y-123171772D01*
X127743754Y-123171765D01*
X127743527Y-123167997D01*
X127683770Y-122840803D01*
X127655658Y-122750265D01*
X127605259Y-122587956D01*
X127585139Y-122523157D01*
X127449061Y-122219662D01*
X127364108Y-122078555D01*
X127279466Y-121937966D01*
X127279462Y-121937960D01*
X127277507Y-121934713D01*
X127275180Y-121931729D01*
X127275175Y-121931722D01*
X127075294Y-121675425D01*
X127075288Y-121675418D01*
X127072963Y-121672437D01*
X126838392Y-121436634D01*
X126577191Y-121230720D01*
X126293144Y-121057677D01*
X126172046Y-121002617D01*
X125993817Y-120921580D01*
X125993809Y-120921577D01*
X125990365Y-120920011D01*
X125673240Y-120819718D01*
X125450896Y-120777906D01*
X125350087Y-120758949D01*
X125350085Y-120758949D01*
X125346364Y-120758249D01*
X125014470Y-120736496D01*
X125010690Y-120736704D01*
X125010689Y-120736704D01*
X124912918Y-120742085D01*
X124682366Y-120754773D01*
X124678639Y-120755434D01*
X124678635Y-120755434D01*
X124419510Y-120801358D01*
X124354864Y-120812815D01*
X124351239Y-120813920D01*
X124351234Y-120813921D01*
X124143683Y-120877178D01*
X124036707Y-120909782D01*
X124033243Y-120911313D01*
X124033236Y-120911316D01*
X123846051Y-120994070D01*
X123732503Y-121044269D01*
X123729249Y-121046205D01*
X123729243Y-121046208D01*
X123449918Y-121212389D01*
X123446659Y-121214328D01*
X123183316Y-121417496D01*
X122946288Y-121650829D01*
X122739009Y-121910949D01*
X122564481Y-122194086D01*
X122425232Y-122496140D01*
X122424073Y-122499740D01*
X122424070Y-122499747D01*
X122373897Y-122655551D01*
X122323280Y-122812735D01*
X122322561Y-122816451D01*
X122322559Y-122816459D01*
X122260819Y-123135567D01*
X122260100Y-123139285D01*
X122259833Y-123143061D01*
X122259832Y-123143066D01*
X122258067Y-123167997D01*
X122237789Y-123454413D01*
X122236610Y-123471061D01*
X121758500Y-123471061D01*
X121758500Y-118055515D01*
X121778502Y-117987394D01*
X121832158Y-117940901D01*
X121867844Y-117930621D01*
X140023249Y-115509901D01*
X140040661Y-115508798D01*
X140069721Y-115508976D01*
X140138778Y-115489239D01*
X140208089Y-115469698D01*
X140208878Y-115469204D01*
X140209771Y-115468949D01*
X140217160Y-115464287D01*
X140217162Y-115464286D01*
X140270344Y-115430730D01*
X140270727Y-115430489D01*
X140324134Y-115397059D01*
X140331553Y-115392415D01*
X140332170Y-115391721D01*
X140332958Y-115391224D01*
X140380634Y-115337242D01*
X140428364Y-115283586D01*
X140428762Y-115282747D01*
X140429378Y-115282049D01*
X140459933Y-115216969D01*
X140490740Y-115151960D01*
X140490887Y-115151040D01*
X140491281Y-115150200D01*
X140502328Y-115079255D01*
X140502398Y-115078811D01*
X140512252Y-115016979D01*
X140512252Y-115016977D01*
X140513664Y-115008117D01*
X140509506Y-114975408D01*
X140508500Y-114959519D01*
X140508500Y-95044352D01*
X140509709Y-95026937D01*
X140512485Y-95007046D01*
X140512485Y-95007045D01*
X140513725Y-94998159D01*
X140503312Y-94927260D01*
X140493080Y-94855813D01*
X140492694Y-94854963D01*
X140492559Y-94854047D01*
X140488936Y-94846154D01*
X140488935Y-94846150D01*
X140462680Y-94788950D01*
X140462493Y-94788541D01*
X140436419Y-94731195D01*
X140432792Y-94723218D01*
X140432185Y-94722514D01*
X140431797Y-94721668D01*
X140384653Y-94667349D01*
X140337713Y-94612873D01*
X140336932Y-94612367D01*
X140336323Y-94611665D01*
X140276147Y-94572966D01*
X140275768Y-94572721D01*
X140222803Y-94538390D01*
X140222796Y-94538387D01*
X140215485Y-94533648D01*
X140214593Y-94533381D01*
X140213812Y-94532879D01*
X140144868Y-94512529D01*
X140075934Y-94491914D01*
X140066958Y-94491859D01*
X140066957Y-94491859D01*
X140057302Y-94491800D01*
X140042952Y-94491713D01*
X140027076Y-94490610D01*
X121867846Y-92069379D01*
X121802968Y-92040550D01*
X121763974Y-91981220D01*
X121758500Y-91944485D01*
X121758500Y-86971061D01*
X122236610Y-86971061D01*
X122253147Y-87303255D01*
X122253788Y-87306986D01*
X122253789Y-87306994D01*
X122268586Y-87393103D01*
X122309474Y-87631057D01*
X122310562Y-87634696D01*
X122310563Y-87634699D01*
X122393665Y-87912571D01*
X122404774Y-87949718D01*
X122406287Y-87953189D01*
X122406289Y-87953195D01*
X122488810Y-88142527D01*
X122537666Y-88254622D01*
X122706226Y-88541352D01*
X122708527Y-88544367D01*
X122905712Y-88802742D01*
X122905717Y-88802748D01*
X122908012Y-88805755D01*
X123140102Y-89044002D01*
X123399132Y-89252640D01*
X123681352Y-89428648D01*
X123982672Y-89569476D01*
X124298729Y-89673085D01*
X124624944Y-89737973D01*
X124628716Y-89738260D01*
X124628724Y-89738261D01*
X124952815Y-89762914D01*
X124952820Y-89762914D01*
X124956592Y-89763201D01*
X125288869Y-89748403D01*
X125293401Y-89747649D01*
X125613220Y-89694417D01*
X125613225Y-89694416D01*
X125616961Y-89693794D01*
X125936116Y-89600164D01*
X125939583Y-89598674D01*
X125939587Y-89598673D01*
X126238228Y-89470366D01*
X126238230Y-89470365D01*
X126241712Y-89468869D01*
X126529321Y-89301813D01*
X126532343Y-89299532D01*
X126532347Y-89299529D01*
X126791753Y-89103697D01*
X126791754Y-89103696D01*
X126794777Y-89101414D01*
X127034235Y-88870575D01*
X127244227Y-88612641D01*
X127421710Y-88331347D01*
X127424728Y-88324978D01*
X127562485Y-88034205D01*
X127564114Y-88030767D01*
X127669377Y-87715257D01*
X127735972Y-87389386D01*
X127762936Y-87057875D01*
X127763542Y-87000000D01*
X127762026Y-86974853D01*
X127761797Y-86971061D01*
X158736610Y-86971061D01*
X158753147Y-87303255D01*
X158753788Y-87306986D01*
X158753789Y-87306994D01*
X158768586Y-87393103D01*
X158809474Y-87631057D01*
X158810562Y-87634696D01*
X158810563Y-87634699D01*
X158893665Y-87912571D01*
X158904774Y-87949718D01*
X158906287Y-87953189D01*
X158906289Y-87953195D01*
X158988810Y-88142527D01*
X159037666Y-88254622D01*
X159206226Y-88541352D01*
X159208527Y-88544367D01*
X159405712Y-88802742D01*
X159405717Y-88802748D01*
X159408012Y-88805755D01*
X159640102Y-89044002D01*
X159899132Y-89252640D01*
X160181352Y-89428648D01*
X160482672Y-89569476D01*
X160798729Y-89673085D01*
X161124944Y-89737973D01*
X161128716Y-89738260D01*
X161128724Y-89738261D01*
X161452815Y-89762914D01*
X161452820Y-89762914D01*
X161456592Y-89763201D01*
X161788869Y-89748403D01*
X161793401Y-89747649D01*
X162113220Y-89694417D01*
X162113225Y-89694416D01*
X162116961Y-89693794D01*
X162436116Y-89600164D01*
X162439583Y-89598674D01*
X162439587Y-89598673D01*
X162738228Y-89470366D01*
X162738230Y-89470365D01*
X162741712Y-89468869D01*
X163029321Y-89301813D01*
X163032343Y-89299532D01*
X163032347Y-89299529D01*
X163291753Y-89103697D01*
X163291754Y-89103696D01*
X163294777Y-89101414D01*
X163534235Y-88870575D01*
X163744227Y-88612641D01*
X163921710Y-88331347D01*
X163924728Y-88324978D01*
X164062485Y-88034205D01*
X164064114Y-88030767D01*
X164169377Y-87715257D01*
X164235972Y-87389386D01*
X164262936Y-87057875D01*
X164263542Y-87000000D01*
X164262026Y-86974853D01*
X164243755Y-86671772D01*
X164243754Y-86671765D01*
X164243527Y-86667997D01*
X164183770Y-86340803D01*
X164155658Y-86250265D01*
X164086261Y-86026771D01*
X164085139Y-86023157D01*
X163949061Y-85719662D01*
X163802876Y-85476850D01*
X163779466Y-85437966D01*
X163779462Y-85437960D01*
X163777507Y-85434713D01*
X163775180Y-85431729D01*
X163775175Y-85431722D01*
X163575294Y-85175425D01*
X163575288Y-85175418D01*
X163572963Y-85172437D01*
X163338392Y-84936634D01*
X163077191Y-84730720D01*
X162793144Y-84557677D01*
X162672046Y-84502617D01*
X162493817Y-84421580D01*
X162493809Y-84421577D01*
X162490365Y-84420011D01*
X162173240Y-84319718D01*
X161950896Y-84277906D01*
X161850087Y-84258949D01*
X161850085Y-84258949D01*
X161846364Y-84258249D01*
X161514470Y-84236496D01*
X161510690Y-84236704D01*
X161510689Y-84236704D01*
X161412918Y-84242085D01*
X161182366Y-84254773D01*
X161178639Y-84255434D01*
X161178635Y-84255434D01*
X160919510Y-84301358D01*
X160854864Y-84312815D01*
X160851239Y-84313920D01*
X160851234Y-84313921D01*
X160643683Y-84377178D01*
X160536707Y-84409782D01*
X160533243Y-84411313D01*
X160533236Y-84411316D01*
X160346051Y-84494070D01*
X160232503Y-84544269D01*
X160229249Y-84546205D01*
X160229243Y-84546208D01*
X159949918Y-84712389D01*
X159946659Y-84714328D01*
X159683316Y-84917496D01*
X159446288Y-85150829D01*
X159239009Y-85410949D01*
X159064481Y-85694086D01*
X158925232Y-85996140D01*
X158924073Y-85999740D01*
X158924070Y-85999747D01*
X158915368Y-86026771D01*
X158823280Y-86312735D01*
X158822561Y-86316451D01*
X158822559Y-86316459D01*
X158760819Y-86635567D01*
X158760100Y-86639285D01*
X158759833Y-86643061D01*
X158759832Y-86643066D01*
X158758067Y-86667997D01*
X158737789Y-86954413D01*
X158736610Y-86971061D01*
X127761797Y-86971061D01*
X127743755Y-86671772D01*
X127743754Y-86671765D01*
X127743527Y-86667997D01*
X127683770Y-86340803D01*
X127655658Y-86250265D01*
X127586261Y-86026771D01*
X127585139Y-86023157D01*
X127449061Y-85719662D01*
X127302876Y-85476850D01*
X127279466Y-85437966D01*
X127279462Y-85437960D01*
X127277507Y-85434713D01*
X127275180Y-85431729D01*
X127275175Y-85431722D01*
X127075294Y-85175425D01*
X127075288Y-85175418D01*
X127072963Y-85172437D01*
X126838392Y-84936634D01*
X126577191Y-84730720D01*
X126293144Y-84557677D01*
X126172046Y-84502617D01*
X125993817Y-84421580D01*
X125993809Y-84421577D01*
X125990365Y-84420011D01*
X125673240Y-84319718D01*
X125450896Y-84277906D01*
X125350087Y-84258949D01*
X125350085Y-84258949D01*
X125346364Y-84258249D01*
X125014470Y-84236496D01*
X125010690Y-84236704D01*
X125010689Y-84236704D01*
X124912918Y-84242085D01*
X124682366Y-84254773D01*
X124678639Y-84255434D01*
X124678635Y-84255434D01*
X124419510Y-84301358D01*
X124354864Y-84312815D01*
X124351239Y-84313920D01*
X124351234Y-84313921D01*
X124143683Y-84377178D01*
X124036707Y-84409782D01*
X124033243Y-84411313D01*
X124033236Y-84411316D01*
X123846051Y-84494070D01*
X123732503Y-84544269D01*
X123729249Y-84546205D01*
X123729243Y-84546208D01*
X123449918Y-84712389D01*
X123446659Y-84714328D01*
X123183316Y-84917496D01*
X122946288Y-85150829D01*
X122739009Y-85410949D01*
X122564481Y-85694086D01*
X122425232Y-85996140D01*
X122424073Y-85999740D01*
X122424070Y-85999747D01*
X122415368Y-86026771D01*
X122323280Y-86312735D01*
X122322561Y-86316451D01*
X122322559Y-86316459D01*
X122260819Y-86635567D01*
X122260100Y-86639285D01*
X122259833Y-86643061D01*
X122259832Y-86643066D01*
X122258067Y-86667997D01*
X122237789Y-86954413D01*
X122236610Y-86971061D01*
X121758500Y-86971061D01*
X121758500Y-83884500D01*
X121778502Y-83816379D01*
X121832158Y-83769886D01*
X121884500Y-83758500D01*
X167615500Y-83758500D01*
X167683621Y-83778502D01*
G37*
G04 #@! TD.AperFunction*
M02*
